<svg width="1153" height="44" viewBox="0 0 1153 44" fill="none" xmlns="http://www.w3.org/2000/svg">
<path d="M15.7929 10.5952V10.5963C15.776 10.6253 12.2955 16.6292 7.95067 23.9595C3.59532 31.3077 0 37.1906 0 37.1906L12.3315 37.1365L12.3323 37.1364L12.3297 37.1459C18.3172 37.03 23.7182 33.0934 25.3119 27.1453C25.8102 25.286 25.8853 23.4143 25.5964 21.6255C24.8043 16.3582 20.9149 12.0745 15.7929 10.5952Z" fill="black"/>
<path d="M22.6077 6.80933V6.81037C22.5908 6.83945 19.1102 12.8433 14.7654 20.1736C10.4101 27.5218 6.81476 33.4047 6.81476 33.4047L19.1462 33.3506L19.147 33.3505L19.1445 33.36C25.132 33.2441 30.5329 29.3075 32.1267 23.3594C32.6249 21.5001 32.7001 19.6284 32.4111 17.8396C31.619 12.5724 27.7297 8.28859 22.6077 6.80933Z" fill="#10F2C5"/>
<path d="M48.6479 31H42.1854V12.7696H48.7014C50.5351 12.7696 52.1136 13.1346 53.437 13.8645C54.7603 14.5885 55.7781 15.63 56.4902 16.989C57.2083 18.3479 57.5673 19.974 57.5673 21.867C57.5673 23.766 57.2083 25.398 56.4902 26.7629C55.7781 28.1278 54.7544 29.1752 53.4192 29.9051C52.0899 30.635 50.4995 31 48.6479 31ZM46.0398 27.6975H48.4877C49.6271 27.6975 50.5855 27.4958 51.3629 27.0922C52.1462 26.6828 52.7338 26.0507 53.1254 25.1962C53.523 24.3357 53.7218 23.226 53.7218 21.867C53.7218 20.5199 53.523 19.4191 53.1254 18.5645C52.7338 17.71 52.1492 17.081 51.3718 16.6774C50.5944 16.2739 49.636 16.0721 48.4966 16.0721H46.0398V27.6975ZM65.3895 31.2225C64.351 31.2225 63.4104 30.9555 62.5677 30.4214C61.731 29.8814 61.0663 29.0891 60.5738 28.0447C60.0872 26.9943 59.8439 25.7066 59.8439 24.1814C59.8439 22.6147 60.0961 21.3122 60.6005 20.2736C61.1049 19.2292 61.7755 18.4488 62.6122 17.9325C63.4549 17.4103 64.3777 17.1492 65.3806 17.1492C66.1461 17.1492 66.7841 17.2798 67.2944 17.5409C67.8107 17.796 68.2261 18.1165 68.5407 18.5022C68.8611 18.882 69.1044 19.2559 69.2706 19.6238H69.3863V12.7696H73.1695V31H69.4308V28.8102H69.2706C69.0926 29.19 68.8403 29.5669 68.514 29.9407C68.1935 30.3086 67.7751 30.6143 67.2588 30.8576C66.7485 31.1009 66.1254 31.2225 65.3895 31.2225ZM66.5912 28.2049C67.2025 28.2049 67.7188 28.0388 68.1401 27.7064C68.5674 27.3682 68.8938 26.8964 69.1193 26.2911C69.3507 25.6858 69.4664 24.9766 69.4664 24.1636C69.4664 23.3506 69.3537 22.6444 69.1282 22.0451C68.9027 21.4457 68.5763 20.9828 68.149 20.6564C67.7217 20.33 67.2025 20.1668 66.5912 20.1668C65.9681 20.1668 65.4429 20.336 65.0157 20.6742C64.5884 21.0125 64.265 21.4813 64.0454 22.0807C63.8258 22.68 63.716 23.3743 63.716 24.1636C63.716 24.9588 63.8258 25.662 64.0454 26.2733C64.2709 26.8786 64.5943 27.3533 65.0157 27.6975C65.4429 28.0358 65.9681 28.2049 66.5912 28.2049ZM87.6634 21.2261L84.1918 21.4397C84.1324 21.143 84.0049 20.876 83.809 20.6386C83.6132 20.3953 83.355 20.2024 83.0346 20.06C82.7201 19.9116 82.3432 19.8375 81.9041 19.8375C81.3166 19.8375 80.8211 19.9621 80.4175 20.2113C80.014 20.4546 79.8122 20.781 79.8122 21.1905C79.8122 21.5169 79.9428 21.7928 80.2039 22.0183C80.465 22.2439 80.9131 22.4248 81.548 22.5613L84.0227 23.0598C85.352 23.3328 86.343 23.7719 86.9958 24.3773C87.6486 24.9826 87.9749 25.7778 87.9749 26.7629C87.9749 27.659 87.7109 28.4453 87.1827 29.1218C86.6605 29.7983 85.9424 30.3265 85.0285 30.7062C84.1206 31.0801 83.0732 31.267 81.8863 31.267C80.0763 31.267 78.6343 30.8902 77.5601 30.1366C76.492 29.377 75.8659 28.3444 75.6819 27.0388L79.4117 26.843C79.5244 27.3949 79.7974 27.8162 80.2306 28.107C80.6638 28.3918 81.2187 28.5343 81.8952 28.5343C82.5598 28.5343 83.0939 28.4067 83.4975 28.1515C83.9069 27.8904 84.1146 27.5551 84.1206 27.1456C84.1146 26.8014 83.9693 26.5196 83.6844 26.3C83.3996 26.0745 82.9604 25.9024 82.367 25.7837L79.9992 25.3119C78.6639 25.0449 77.6699 24.582 77.0172 23.9233C76.3703 23.2646 76.0469 22.4248 76.0469 21.4041C76.0469 20.5259 76.2843 19.7692 76.759 19.1342C77.2397 18.4993 77.9132 18.0097 78.7797 17.6655C79.652 17.3213 80.6727 17.1492 81.8418 17.1492C83.5687 17.1492 84.9277 17.5142 85.9187 18.2441C86.9157 18.974 87.4972 19.968 87.6634 21.2261ZM96.5227 36.4121C95.2942 36.4121 94.2409 36.243 93.3626 35.9047C92.4903 35.5724 91.7959 35.1184 91.2796 34.5428C90.7634 33.9672 90.4281 33.3203 90.2738 32.6023L93.781 32.1305C93.8878 32.4035 94.0569 32.6587 94.2884 32.896C94.5198 33.1334 94.8254 33.3233 95.2052 33.4657C95.591 33.6141 96.0598 33.6883 96.6117 33.6883C97.4365 33.6883 98.116 33.4865 98.6501 33.083C99.1901 32.6854 99.4602 32.0177 99.4602 31.0801V28.5788H99.2999C99.1338 28.9586 98.8845 29.3176 98.5522 29.6559C98.2199 29.9941 97.7926 30.2701 97.2704 30.4837C96.7482 30.6973 96.1251 30.8042 95.4011 30.8042C94.3744 30.8042 93.4398 30.5668 92.5971 30.092C91.7603 29.6114 91.0927 28.8785 90.5942 27.8934C90.1017 26.9023 89.8554 25.6502 89.8554 24.1369C89.8554 22.588 90.1076 21.2944 90.612 20.2558C91.1165 19.2173 91.787 18.4399 92.6238 17.9236C93.4665 17.4073 94.3893 17.1492 95.3922 17.1492C96.1577 17.1492 96.7986 17.2798 97.3149 17.5409C97.8312 17.796 98.2466 18.1165 98.5611 18.5022C98.8816 18.882 99.1278 19.2559 99.2999 19.6238H99.4424V17.3272H103.208V31.1335C103.208 32.2967 102.923 33.2699 102.353 34.0532C101.783 34.8366 100.994 35.4241 99.9854 35.8157C98.9824 36.2133 97.8282 36.4121 96.5227 36.4121ZM96.6028 27.9557C97.214 27.9557 97.7303 27.8043 98.1516 27.5017C98.5789 27.1931 98.9053 26.754 99.1308 26.1843C99.3622 25.6086 99.478 24.9202 99.478 24.1191C99.478 23.318 99.3652 22.6237 99.1397 22.0361C98.9142 21.4427 98.5878 20.9828 98.1605 20.6564C97.7333 20.33 97.214 20.1668 96.6028 20.1668C95.9797 20.1668 95.4545 20.336 95.0272 20.6742C94.5999 21.0065 94.2765 21.4694 94.0569 22.0629C93.8374 22.6563 93.7276 23.3417 93.7276 24.1191C93.7276 24.9084 93.8374 25.5908 94.0569 26.1665C94.2824 26.7362 94.6059 27.1783 95.0272 27.4928C95.4545 27.8014 95.9797 27.9557 96.6028 27.9557ZM110.017 23.0954V31H106.225V17.3272H109.839V19.7396H110C110.302 18.9443 110.81 18.3153 111.522 17.8524C112.234 17.3836 113.097 17.1492 114.112 17.1492C115.062 17.1492 115.889 17.3569 116.596 17.7723C117.302 18.1877 117.851 18.7812 118.242 19.5526C118.634 20.3182 118.83 21.232 118.83 22.2943V31H115.038V22.9708C115.044 22.1341 114.83 21.4813 114.397 21.0125C113.964 20.5377 113.367 20.3003 112.608 20.3003C112.097 20.3003 111.646 20.4101 111.255 20.6297C110.869 20.8493 110.566 21.1697 110.347 21.5911C110.133 22.0065 110.023 22.5079 110.017 23.0954ZM121.819 31V17.3272H125.495V19.7128H125.637C125.887 18.8642 126.305 18.2233 126.892 17.7901C127.48 17.351 128.157 17.1314 128.922 17.1314C129.112 17.1314 129.317 17.1433 129.536 17.167C129.756 17.1907 129.949 17.2234 130.115 17.2649V20.6297C129.937 20.5763 129.691 20.5288 129.376 20.4873C129.061 20.4457 128.774 20.425 128.513 20.425C127.955 20.425 127.456 20.5466 127.017 20.7899C126.584 21.0273 126.24 21.3596 125.985 21.7869C125.735 22.2142 125.611 22.7067 125.611 23.2646V31H121.819Z" fill="black"/>
<rect width="910" height="44" transform="translate(242)" fill="white"/>
<g clip-path="url(#clip0_1_764)">
<mask id="path-4-inside-1_1_764" fill="white">
<path d="M242 0H306V44H242V0Z"/>
</mask>
<path d="M306 43H242V45H306V43Z" fill="black" mask="url(#path-4-inside-1_1_764)"/>
<path d="M260.75 20.5156V21.7422H254.594V20.5156H260.75ZM254.828 15.625V27H253.32V15.625H254.828ZM262.062 15.625V27H260.562V15.625H262.062ZM264.141 22.8672V22.6875C264.141 22.0781 264.229 21.513 264.406 20.9922C264.583 20.4661 264.839 20.0104 265.172 19.625C265.505 19.2344 265.909 18.9323 266.383 18.7188C266.857 18.5 267.388 18.3906 267.977 18.3906C268.57 18.3906 269.104 18.5 269.578 18.7188C270.057 18.9323 270.464 19.2344 270.797 19.625C271.135 20.0104 271.393 20.4661 271.57 20.9922C271.747 21.513 271.836 22.0781 271.836 22.6875V22.8672C271.836 23.4766 271.747 24.0417 271.57 24.5625C271.393 25.0833 271.135 25.5391 270.797 25.9297C270.464 26.3151 270.06 26.6172 269.586 26.8359C269.117 27.0495 268.586 27.1562 267.992 27.1562C267.398 27.1562 266.865 27.0495 266.391 26.8359C265.917 26.6172 265.51 26.3151 265.172 25.9297C264.839 25.5391 264.583 25.0833 264.406 24.5625C264.229 24.0417 264.141 23.4766 264.141 22.8672ZM265.586 22.6875V22.8672C265.586 23.2891 265.635 23.6875 265.734 24.0625C265.833 24.4323 265.982 24.7604 266.18 25.0469C266.383 25.3333 266.635 25.5599 266.938 25.7266C267.24 25.888 267.591 25.9688 267.992 25.9688C268.388 25.9688 268.734 25.888 269.031 25.7266C269.333 25.5599 269.583 25.3333 269.781 25.0469C269.979 24.7604 270.128 24.4323 270.227 24.0625C270.331 23.6875 270.383 23.2891 270.383 22.8672V22.6875C270.383 22.2708 270.331 21.8776 270.227 21.5078C270.128 21.1328 269.977 20.8021 269.773 20.5156C269.576 20.224 269.326 19.9948 269.023 19.8281C268.727 19.6615 268.378 19.5781 267.977 19.5781C267.581 19.5781 267.232 19.6615 266.93 19.8281C266.633 19.9948 266.383 20.224 266.18 20.5156C265.982 20.8021 265.833 21.1328 265.734 21.5078C265.635 21.8776 265.586 22.2708 265.586 22.6875ZM275.086 20.2266V27H273.633V18.5469H275.008L275.086 20.2266ZM274.789 22.4531L274.117 22.4297C274.122 21.8516 274.198 21.3177 274.344 20.8281C274.49 20.3333 274.706 19.9036 274.992 19.5391C275.279 19.1745 275.635 18.8932 276.062 18.6953C276.49 18.4922 276.984 18.3906 277.547 18.3906C277.943 18.3906 278.307 18.4479 278.641 18.5625C278.974 18.6719 279.263 18.8464 279.508 19.0859C279.753 19.3255 279.943 19.6328 280.078 20.0078C280.214 20.3828 280.281 20.8359 280.281 21.3672V27H278.836V21.4375C278.836 20.9948 278.76 20.6406 278.609 20.375C278.464 20.1094 278.255 19.9167 277.984 19.7969C277.714 19.6719 277.396 19.6094 277.031 19.6094C276.604 19.6094 276.247 19.6849 275.961 19.8359C275.674 19.987 275.445 20.1953 275.273 20.4609C275.102 20.7266 274.977 21.0312 274.898 21.375C274.826 21.7135 274.789 22.0729 274.789 22.4531ZM280.266 21.6562L279.297 21.9531C279.302 21.4896 279.378 21.0443 279.523 20.6172C279.674 20.1901 279.891 19.8099 280.172 19.4766C280.458 19.1432 280.81 18.8802 281.227 18.6875C281.643 18.4896 282.12 18.3906 282.656 18.3906C283.109 18.3906 283.51 18.4505 283.859 18.5703C284.214 18.6901 284.51 18.875 284.75 19.125C284.995 19.3698 285.18 19.6849 285.305 20.0703C285.43 20.4557 285.492 20.9141 285.492 21.4453V27H284.039V21.4297C284.039 20.9557 283.964 20.5885 283.812 20.3281C283.667 20.0625 283.458 19.8776 283.188 19.7734C282.922 19.6641 282.604 19.6094 282.234 19.6094C281.917 19.6094 281.635 19.6641 281.391 19.7734C281.146 19.8828 280.94 20.0339 280.773 20.2266C280.607 20.4141 280.479 20.6302 280.391 20.875C280.307 21.1198 280.266 21.3802 280.266 21.6562ZM291.188 27.1562C290.599 27.1562 290.065 27.0573 289.586 26.8594C289.112 26.6562 288.703 26.3724 288.359 26.0078C288.021 25.6432 287.76 25.2109 287.578 24.7109C287.396 24.2109 287.305 23.6641 287.305 23.0703V22.7422C287.305 22.0547 287.406 21.4427 287.609 20.9062C287.812 20.3646 288.089 19.9062 288.438 19.5312C288.786 19.1562 289.182 18.8724 289.625 18.6797C290.068 18.487 290.526 18.3906 291 18.3906C291.604 18.3906 292.125 18.4948 292.562 18.7031C293.005 18.9115 293.367 19.2031 293.648 19.5781C293.93 19.9479 294.138 20.3854 294.273 20.8906C294.409 21.3906 294.477 21.9375 294.477 22.5312V23.1797H288.164V22H293.031V21.8906C293.01 21.5156 292.932 21.151 292.797 20.7969C292.667 20.4427 292.458 20.151 292.172 19.9219C291.885 19.6927 291.495 19.5781 291 19.5781C290.672 19.5781 290.37 19.6484 290.094 19.7891C289.818 19.9245 289.581 20.1276 289.383 20.3984C289.185 20.6693 289.031 21 288.922 21.3906C288.812 21.7812 288.758 22.2318 288.758 22.7422V23.0703C288.758 23.4714 288.812 23.849 288.922 24.2031C289.036 24.5521 289.201 24.8594 289.414 25.125C289.633 25.3906 289.896 25.599 290.203 25.75C290.516 25.901 290.87 25.9766 291.266 25.9766C291.776 25.9766 292.208 25.8724 292.562 25.6641C292.917 25.4557 293.227 25.1771 293.492 24.8281L294.367 25.5234C294.185 25.7995 293.953 26.0625 293.672 26.3125C293.391 26.5625 293.044 26.7656 292.633 26.9219C292.227 27.0781 291.745 27.1562 291.188 27.1562Z" fill="black"/>
<path d="M356.188 23.3828H357.688C357.609 24.1016 357.404 24.7448 357.07 25.3125C356.737 25.8802 356.266 26.3307 355.656 26.6641C355.047 26.9922 354.286 27.1562 353.375 27.1562C352.708 27.1562 352.102 27.0312 351.555 26.7812C351.013 26.5312 350.547 26.1771 350.156 25.7188C349.766 25.2552 349.464 24.7005 349.25 24.0547C349.042 23.4036 348.938 22.6797 348.938 21.8828V20.75C348.938 19.9531 349.042 19.2318 349.25 18.5859C349.464 17.9349 349.768 17.3776 350.164 16.9141C350.565 16.4505 351.047 16.0938 351.609 15.8438C352.172 15.5938 352.805 15.4688 353.508 15.4688C354.367 15.4688 355.094 15.6302 355.688 15.9531C356.281 16.276 356.742 16.724 357.07 17.2969C357.404 17.8646 357.609 18.5234 357.688 19.2734H356.188C356.115 18.7422 355.979 18.2865 355.781 17.9062C355.583 17.5208 355.302 17.224 354.938 17.0156C354.573 16.8073 354.096 16.7031 353.508 16.7031C353.003 16.7031 352.557 16.7995 352.172 16.9922C351.792 17.1849 351.471 17.4583 351.211 17.8125C350.956 18.1667 350.763 18.5911 350.633 19.0859C350.503 19.5807 350.438 20.1302 350.438 20.7344V21.8828C350.438 22.4401 350.495 22.9635 350.609 23.4531C350.729 23.9427 350.909 24.3724 351.148 24.7422C351.388 25.112 351.693 25.4036 352.062 25.6172C352.432 25.8255 352.87 25.9297 353.375 25.9297C354.016 25.9297 354.526 25.8281 354.906 25.625C355.286 25.4219 355.573 25.1302 355.766 24.75C355.964 24.3698 356.104 23.9141 356.188 23.3828ZM359.141 22.8672V22.6875C359.141 22.0781 359.229 21.513 359.406 20.9922C359.583 20.4661 359.839 20.0104 360.172 19.625C360.505 19.2344 360.909 18.9323 361.383 18.7188C361.857 18.5 362.388 18.3906 362.977 18.3906C363.57 18.3906 364.104 18.5 364.578 18.7188C365.057 18.9323 365.464 19.2344 365.797 19.625C366.135 20.0104 366.393 20.4661 366.57 20.9922C366.747 21.513 366.836 22.0781 366.836 22.6875V22.8672C366.836 23.4766 366.747 24.0417 366.57 24.5625C366.393 25.0833 366.135 25.5391 365.797 25.9297C365.464 26.3151 365.06 26.6172 364.586 26.8359C364.117 27.0495 363.586 27.1562 362.992 27.1562C362.398 27.1562 361.865 27.0495 361.391 26.8359C360.917 26.6172 360.51 26.3151 360.172 25.9297C359.839 25.5391 359.583 25.0833 359.406 24.5625C359.229 24.0417 359.141 23.4766 359.141 22.8672ZM360.586 22.6875V22.8672C360.586 23.2891 360.635 23.6875 360.734 24.0625C360.833 24.4323 360.982 24.7604 361.18 25.0469C361.383 25.3333 361.635 25.5599 361.938 25.7266C362.24 25.888 362.591 25.9688 362.992 25.9688C363.388 25.9688 363.734 25.888 364.031 25.7266C364.333 25.5599 364.583 25.3333 364.781 25.0469C364.979 24.7604 365.128 24.4323 365.227 24.0625C365.331 23.6875 365.383 23.2891 365.383 22.8672V22.6875C365.383 22.2708 365.331 21.8776 365.227 21.5078C365.128 21.1328 364.977 20.8021 364.773 20.5156C364.576 20.224 364.326 19.9948 364.023 19.8281C363.727 19.6615 363.378 19.5781 362.977 19.5781C362.581 19.5781 362.232 19.6615 361.93 19.8281C361.633 19.9948 361.383 20.224 361.18 20.5156C360.982 20.8021 360.833 21.1328 360.734 21.5078C360.635 21.8776 360.586 22.2708 360.586 22.6875ZM373.82 25.0469V18.5469H375.273V27H373.891L373.82 25.0469ZM374.094 23.2656L374.695 23.25C374.695 23.8125 374.635 24.3333 374.516 24.8125C374.401 25.2865 374.214 25.6979 373.953 26.0469C373.693 26.3958 373.352 26.6693 372.93 26.8672C372.508 27.0599 371.995 27.1562 371.391 27.1562C370.979 27.1562 370.602 27.0964 370.258 26.9766C369.919 26.8568 369.628 26.6719 369.383 26.4219C369.138 26.1719 368.948 25.8464 368.812 25.4453C368.682 25.0443 368.617 24.5625 368.617 24V18.5469H370.062V24.0156C370.062 24.3958 370.104 24.7109 370.188 24.9609C370.276 25.2057 370.393 25.401 370.539 25.5469C370.69 25.6875 370.857 25.7865 371.039 25.8438C371.227 25.901 371.419 25.9297 371.617 25.9297C372.232 25.9297 372.719 25.8125 373.078 25.5781C373.438 25.3385 373.695 25.0182 373.852 24.6172C374.013 24.2109 374.094 23.7604 374.094 23.2656ZM378.922 19.875V27H377.477V18.5469H378.883L378.922 19.875ZM381.562 18.5L381.555 19.8438C381.435 19.8177 381.32 19.8021 381.211 19.7969C381.107 19.7865 380.987 19.7812 380.852 19.7812C380.518 19.7812 380.224 19.8333 379.969 19.9375C379.714 20.0417 379.497 20.1875 379.32 20.375C379.143 20.5625 379.003 20.7865 378.898 21.0469C378.799 21.3021 378.734 21.5833 378.703 21.8906L378.297 22.125C378.297 21.6146 378.346 21.1354 378.445 20.6875C378.549 20.2396 378.708 19.8438 378.922 19.5C379.135 19.151 379.406 18.8802 379.734 18.6875C380.068 18.4896 380.464 18.3906 380.922 18.3906C381.026 18.3906 381.146 18.4036 381.281 18.4297C381.417 18.4505 381.51 18.474 381.562 18.5ZM387.82 24.7578C387.82 24.5495 387.773 24.3568 387.68 24.1797C387.591 23.9974 387.406 23.8333 387.125 23.6875C386.849 23.5365 386.432 23.4062 385.875 23.2969C385.406 23.1979 384.982 23.0807 384.602 22.9453C384.227 22.8099 383.906 22.6458 383.641 22.4531C383.38 22.2604 383.18 22.0339 383.039 21.7734C382.898 21.513 382.828 21.2083 382.828 20.8594C382.828 20.526 382.901 20.2109 383.047 19.9141C383.198 19.6172 383.409 19.3542 383.68 19.125C383.956 18.8958 384.286 18.7161 384.672 18.5859C385.057 18.4557 385.487 18.3906 385.961 18.3906C386.638 18.3906 387.216 18.5104 387.695 18.75C388.174 18.9896 388.542 19.3099 388.797 19.7109C389.052 20.1068 389.18 20.5469 389.18 21.0312H387.734C387.734 20.7969 387.664 20.5703 387.523 20.3516C387.388 20.1276 387.188 19.9427 386.922 19.7969C386.661 19.651 386.341 19.5781 385.961 19.5781C385.56 19.5781 385.234 19.6406 384.984 19.7656C384.74 19.8854 384.56 20.0391 384.445 20.2266C384.336 20.4141 384.281 20.612 384.281 20.8203C384.281 20.9766 384.307 21.1172 384.359 21.2422C384.417 21.362 384.516 21.474 384.656 21.5781C384.797 21.6771 384.995 21.7708 385.25 21.8594C385.505 21.9479 385.831 22.0365 386.227 22.125C386.919 22.2812 387.49 22.4688 387.938 22.6875C388.385 22.9062 388.719 23.1745 388.938 23.4922C389.156 23.8099 389.266 24.1953 389.266 24.6484C389.266 25.0182 389.188 25.3568 389.031 25.6641C388.88 25.9714 388.659 26.237 388.367 26.4609C388.081 26.6797 387.737 26.8516 387.336 26.9766C386.94 27.0964 386.495 27.1562 386 27.1562C385.255 27.1562 384.625 27.0234 384.109 26.7578C383.594 26.4922 383.203 26.1484 382.938 25.7266C382.672 25.3047 382.539 24.8594 382.539 24.3906H383.992C384.013 24.7865 384.128 25.1016 384.336 25.3359C384.544 25.5651 384.799 25.7292 385.102 25.8281C385.404 25.9219 385.703 25.9688 386 25.9688C386.396 25.9688 386.727 25.9167 386.992 25.8125C387.263 25.7083 387.469 25.5651 387.609 25.3828C387.75 25.2005 387.82 24.9922 387.82 24.7578ZM394.672 27.1562C394.083 27.1562 393.549 27.0573 393.07 26.8594C392.596 26.6562 392.188 26.3724 391.844 26.0078C391.505 25.6432 391.245 25.2109 391.062 24.7109C390.88 24.2109 390.789 23.6641 390.789 23.0703V22.7422C390.789 22.0547 390.891 21.4427 391.094 20.9062C391.297 20.3646 391.573 19.9062 391.922 19.5312C392.271 19.1562 392.667 18.8724 393.109 18.6797C393.552 18.487 394.01 18.3906 394.484 18.3906C395.089 18.3906 395.609 18.4948 396.047 18.7031C396.49 18.9115 396.852 19.2031 397.133 19.5781C397.414 19.9479 397.622 20.3854 397.758 20.8906C397.893 21.3906 397.961 21.9375 397.961 22.5312V23.1797H391.648V22H396.516V21.8906C396.495 21.5156 396.417 21.151 396.281 20.7969C396.151 20.4427 395.943 20.151 395.656 19.9219C395.37 19.6927 394.979 19.5781 394.484 19.5781C394.156 19.5781 393.854 19.6484 393.578 19.7891C393.302 19.9245 393.065 20.1276 392.867 20.3984C392.669 20.6693 392.516 21 392.406 21.3906C392.297 21.7812 392.242 22.2318 392.242 22.7422V23.0703C392.242 23.4714 392.297 23.849 392.406 24.2031C392.521 24.5521 392.685 24.8594 392.898 25.125C393.117 25.3906 393.38 25.599 393.688 25.75C394 25.901 394.354 25.9766 394.75 25.9766C395.26 25.9766 395.693 25.8724 396.047 25.6641C396.401 25.4557 396.711 25.1771 396.977 24.8281L397.852 25.5234C397.669 25.7995 397.438 26.0625 397.156 26.3125C396.875 26.5625 396.529 26.7656 396.117 26.9219C395.711 27.0781 395.229 27.1562 394.672 27.1562ZM404.57 24.7578C404.57 24.5495 404.523 24.3568 404.43 24.1797C404.341 23.9974 404.156 23.8333 403.875 23.6875C403.599 23.5365 403.182 23.4062 402.625 23.2969C402.156 23.1979 401.732 23.0807 401.352 22.9453C400.977 22.8099 400.656 22.6458 400.391 22.4531C400.13 22.2604 399.93 22.0339 399.789 21.7734C399.648 21.513 399.578 21.2083 399.578 20.8594C399.578 20.526 399.651 20.2109 399.797 19.9141C399.948 19.6172 400.159 19.3542 400.43 19.125C400.706 18.8958 401.036 18.7161 401.422 18.5859C401.807 18.4557 402.237 18.3906 402.711 18.3906C403.388 18.3906 403.966 18.5104 404.445 18.75C404.924 18.9896 405.292 19.3099 405.547 19.7109C405.802 20.1068 405.93 20.5469 405.93 21.0312H404.484C404.484 20.7969 404.414 20.5703 404.273 20.3516C404.138 20.1276 403.938 19.9427 403.672 19.7969C403.411 19.651 403.091 19.5781 402.711 19.5781C402.31 19.5781 401.984 19.6406 401.734 19.7656C401.49 19.8854 401.31 20.0391 401.195 20.2266C401.086 20.4141 401.031 20.612 401.031 20.8203C401.031 20.9766 401.057 21.1172 401.109 21.2422C401.167 21.362 401.266 21.474 401.406 21.5781C401.547 21.6771 401.745 21.7708 402 21.8594C402.255 21.9479 402.581 22.0365 402.977 22.125C403.669 22.2812 404.24 22.4688 404.688 22.6875C405.135 22.9062 405.469 23.1745 405.688 23.4922C405.906 23.8099 406.016 24.1953 406.016 24.6484C406.016 25.0182 405.938 25.3568 405.781 25.6641C405.63 25.9714 405.409 26.237 405.117 26.4609C404.831 26.6797 404.487 26.8516 404.086 26.9766C403.69 27.0964 403.245 27.1562 402.75 27.1562C402.005 27.1562 401.375 27.0234 400.859 26.7578C400.344 26.4922 399.953 26.1484 399.688 25.7266C399.422 25.3047 399.289 24.8594 399.289 24.3906H400.742C400.763 24.7865 400.878 25.1016 401.086 25.3359C401.294 25.5651 401.549 25.7292 401.852 25.8281C402.154 25.9219 402.453 25.9688 402.75 25.9688C403.146 25.9688 403.477 25.9167 403.742 25.8125C404.013 25.7083 404.219 25.5651 404.359 25.3828C404.5 25.2005 404.57 24.9922 404.57 24.7578Z" fill="black"/>
<path d="M466.383 24.125C466.383 23.8594 466.341 23.625 466.258 23.4219C466.18 23.2135 466.039 23.026 465.836 22.8594C465.638 22.6927 465.362 22.5339 465.008 22.3828C464.659 22.2318 464.216 22.0781 463.68 21.9219C463.117 21.7552 462.609 21.5703 462.156 21.3672C461.703 21.1589 461.315 20.9219 460.992 20.6562C460.669 20.3906 460.422 20.0859 460.25 19.7422C460.078 19.3984 459.992 19.0052 459.992 18.5625C459.992 18.1198 460.083 17.7109 460.266 17.3359C460.448 16.9609 460.708 16.6354 461.047 16.3594C461.391 16.0781 461.799 15.8594 462.273 15.7031C462.747 15.5469 463.276 15.4688 463.859 15.4688C464.714 15.4688 465.438 15.6328 466.031 15.9609C466.63 16.2839 467.086 16.7083 467.398 17.2344C467.711 17.7552 467.867 18.3125 467.867 18.9062H466.367C466.367 18.4792 466.276 18.1016 466.094 17.7734C465.911 17.4401 465.635 17.1797 465.266 16.9922C464.896 16.7995 464.427 16.7031 463.859 16.7031C463.323 16.7031 462.88 16.7839 462.531 16.9453C462.182 17.1068 461.922 17.3255 461.75 17.6016C461.583 17.8776 461.5 18.1927 461.5 18.5469C461.5 18.7865 461.549 19.0052 461.648 19.2031C461.753 19.3958 461.911 19.5755 462.125 19.7422C462.344 19.9089 462.62 20.0625 462.953 20.2031C463.292 20.3438 463.695 20.4792 464.164 20.6094C464.81 20.7917 465.367 20.9948 465.836 21.2188C466.305 21.4427 466.69 21.6953 466.992 21.9766C467.299 22.2526 467.526 22.5677 467.672 22.9219C467.823 23.2708 467.898 23.6667 467.898 24.1094C467.898 24.5729 467.805 24.9922 467.617 25.3672C467.43 25.7422 467.161 26.0625 466.812 26.3281C466.464 26.5938 466.044 26.7995 465.555 26.9453C465.07 27.0859 464.529 27.1562 463.93 27.1562C463.404 27.1562 462.885 27.0833 462.375 26.9375C461.87 26.7917 461.409 26.5729 460.992 26.2812C460.581 25.9896 460.25 25.6302 460 25.2031C459.755 24.7708 459.633 24.2708 459.633 23.7031H461.133C461.133 24.0938 461.208 24.4297 461.359 24.7109C461.51 24.987 461.716 25.2161 461.977 25.3984C462.242 25.5807 462.542 25.7161 462.875 25.8047C463.214 25.888 463.565 25.9297 463.93 25.9297C464.456 25.9297 464.901 25.8568 465.266 25.7109C465.63 25.5651 465.906 25.3568 466.094 25.0859C466.286 24.8151 466.383 24.4948 466.383 24.125ZM473.109 27.1562C472.521 27.1562 471.987 27.0573 471.508 26.8594C471.034 26.6562 470.625 26.3724 470.281 26.0078C469.943 25.6432 469.682 25.2109 469.5 24.7109C469.318 24.2109 469.227 23.6641 469.227 23.0703V22.7422C469.227 22.0547 469.328 21.4427 469.531 20.9062C469.734 20.3646 470.01 19.9062 470.359 19.5312C470.708 19.1562 471.104 18.8724 471.547 18.6797C471.99 18.487 472.448 18.3906 472.922 18.3906C473.526 18.3906 474.047 18.4948 474.484 18.7031C474.927 18.9115 475.289 19.2031 475.57 19.5781C475.852 19.9479 476.06 20.3854 476.195 20.8906C476.331 21.3906 476.398 21.9375 476.398 22.5312V23.1797H470.086V22H474.953V21.8906C474.932 21.5156 474.854 21.151 474.719 20.7969C474.589 20.4427 474.38 20.151 474.094 19.9219C473.807 19.6927 473.417 19.5781 472.922 19.5781C472.594 19.5781 472.292 19.6484 472.016 19.7891C471.74 19.9245 471.503 20.1276 471.305 20.3984C471.107 20.6693 470.953 21 470.844 21.3906C470.734 21.7812 470.68 22.2318 470.68 22.7422V23.0703C470.68 23.4714 470.734 23.849 470.844 24.2031C470.958 24.5521 471.122 24.8594 471.336 25.125C471.555 25.3906 471.818 25.599 472.125 25.75C472.438 25.901 472.792 25.9766 473.188 25.9766C473.698 25.9766 474.13 25.8724 474.484 25.6641C474.839 25.4557 475.148 25.1771 475.414 24.8281L476.289 25.5234C476.107 25.7995 475.875 26.0625 475.594 26.3125C475.312 26.5625 474.966 26.7656 474.555 26.9219C474.148 27.0781 473.667 27.1562 473.109 27.1562ZM479.531 19.875V27H478.086V18.5469H479.492L479.531 19.875ZM482.172 18.5L482.164 19.8438C482.044 19.8177 481.93 19.8021 481.82 19.7969C481.716 19.7865 481.596 19.7812 481.461 19.7812C481.128 19.7812 480.833 19.8333 480.578 19.9375C480.323 20.0417 480.107 20.1875 479.93 20.375C479.753 20.5625 479.612 20.7865 479.508 21.0469C479.409 21.3021 479.344 21.5833 479.312 21.8906L478.906 22.125C478.906 21.6146 478.956 21.1354 479.055 20.6875C479.159 20.2396 479.318 19.8438 479.531 19.5C479.745 19.151 480.016 18.8802 480.344 18.6875C480.677 18.4896 481.073 18.3906 481.531 18.3906C481.635 18.3906 481.755 18.4036 481.891 18.4297C482.026 18.4505 482.12 18.474 482.172 18.5ZM486.219 25.6953L488.531 18.5469H490.008L486.969 27H486L486.219 25.6953ZM484.289 18.5469L486.672 25.7344L486.836 27H485.867L482.805 18.5469H484.289ZM492.969 18.5469V27H491.516V18.5469H492.969ZM491.406 16.3047C491.406 16.0703 491.477 15.8724 491.617 15.7109C491.763 15.5495 491.977 15.4688 492.258 15.4688C492.534 15.4688 492.745 15.5495 492.891 15.7109C493.042 15.8724 493.117 16.0703 493.117 16.3047C493.117 16.5286 493.042 16.7214 492.891 16.8828C492.745 17.0391 492.534 17.1172 492.258 17.1172C491.977 17.1172 491.763 17.0391 491.617 16.8828C491.477 16.7214 491.406 16.5286 491.406 16.3047ZM498.672 25.9688C499.016 25.9688 499.333 25.8984 499.625 25.7578C499.917 25.6172 500.156 25.4245 500.344 25.1797C500.531 24.9297 500.638 24.6458 500.664 24.3281H502.039C502.013 24.8281 501.844 25.2943 501.531 25.7266C501.224 26.1536 500.82 26.5 500.32 26.7656C499.82 27.026 499.271 27.1562 498.672 27.1562C498.036 27.1562 497.482 27.0443 497.008 26.8203C496.539 26.5964 496.148 26.2891 495.836 25.8984C495.529 25.5078 495.297 25.0599 495.141 24.5547C494.99 24.0443 494.914 23.5052 494.914 22.9375V22.6094C494.914 22.0417 494.99 21.5052 495.141 21C495.297 20.4896 495.529 20.0391 495.836 19.6484C496.148 19.2578 496.539 18.9505 497.008 18.7266C497.482 18.5026 498.036 18.3906 498.672 18.3906C499.333 18.3906 499.911 18.526 500.406 18.7969C500.901 19.0625 501.289 19.4271 501.57 19.8906C501.857 20.349 502.013 20.8698 502.039 21.4531H500.664C500.638 21.1042 500.539 20.7891 500.367 20.5078C500.201 20.2266 499.971 20.0026 499.68 19.8359C499.393 19.6641 499.057 19.5781 498.672 19.5781C498.229 19.5781 497.857 19.6667 497.555 19.8438C497.258 20.0156 497.021 20.25 496.844 20.5469C496.672 20.8385 496.547 21.1641 496.469 21.5234C496.396 21.8776 496.359 22.2396 496.359 22.6094V22.9375C496.359 23.3073 496.396 23.6719 496.469 24.0312C496.542 24.3906 496.664 24.7161 496.836 25.0078C497.013 25.2995 497.25 25.5339 497.547 25.7109C497.849 25.8828 498.224 25.9688 498.672 25.9688ZM507.172 27.1562C506.583 27.1562 506.049 27.0573 505.57 26.8594C505.096 26.6562 504.688 26.3724 504.344 26.0078C504.005 25.6432 503.745 25.2109 503.562 24.7109C503.38 24.2109 503.289 23.6641 503.289 23.0703V22.7422C503.289 22.0547 503.391 21.4427 503.594 20.9062C503.797 20.3646 504.073 19.9062 504.422 19.5312C504.771 19.1562 505.167 18.8724 505.609 18.6797C506.052 18.487 506.51 18.3906 506.984 18.3906C507.589 18.3906 508.109 18.4948 508.547 18.7031C508.99 18.9115 509.352 19.2031 509.633 19.5781C509.914 19.9479 510.122 20.3854 510.258 20.8906C510.393 21.3906 510.461 21.9375 510.461 22.5312V23.1797H504.148V22H509.016V21.8906C508.995 21.5156 508.917 21.151 508.781 20.7969C508.651 20.4427 508.443 20.151 508.156 19.9219C507.87 19.6927 507.479 19.5781 506.984 19.5781C506.656 19.5781 506.354 19.6484 506.078 19.7891C505.802 19.9245 505.565 20.1276 505.367 20.3984C505.169 20.6693 505.016 21 504.906 21.3906C504.797 21.7812 504.742 22.2318 504.742 22.7422V23.0703C504.742 23.4714 504.797 23.849 504.906 24.2031C505.021 24.5521 505.185 24.8594 505.398 25.125C505.617 25.3906 505.88 25.599 506.188 25.75C506.5 25.901 506.854 25.9766 507.25 25.9766C507.76 25.9766 508.193 25.8724 508.547 25.6641C508.901 25.4557 509.211 25.1771 509.477 24.8281L510.352 25.5234C510.169 25.7995 509.938 26.0625 509.656 26.3125C509.375 26.5625 509.029 26.7656 508.617 26.9219C508.211 27.0781 507.729 27.1562 507.172 27.1562ZM517.07 24.7578C517.07 24.5495 517.023 24.3568 516.93 24.1797C516.841 23.9974 516.656 23.8333 516.375 23.6875C516.099 23.5365 515.682 23.4062 515.125 23.2969C514.656 23.1979 514.232 23.0807 513.852 22.9453C513.477 22.8099 513.156 22.6458 512.891 22.4531C512.63 22.2604 512.43 22.0339 512.289 21.7734C512.148 21.513 512.078 21.2083 512.078 20.8594C512.078 20.526 512.151 20.2109 512.297 19.9141C512.448 19.6172 512.659 19.3542 512.93 19.125C513.206 18.8958 513.536 18.7161 513.922 18.5859C514.307 18.4557 514.737 18.3906 515.211 18.3906C515.888 18.3906 516.466 18.5104 516.945 18.75C517.424 18.9896 517.792 19.3099 518.047 19.7109C518.302 20.1068 518.43 20.5469 518.43 21.0312H516.984C516.984 20.7969 516.914 20.5703 516.773 20.3516C516.638 20.1276 516.438 19.9427 516.172 19.7969C515.911 19.651 515.591 19.5781 515.211 19.5781C514.81 19.5781 514.484 19.6406 514.234 19.7656C513.99 19.8854 513.81 20.0391 513.695 20.2266C513.586 20.4141 513.531 20.612 513.531 20.8203C513.531 20.9766 513.557 21.1172 513.609 21.2422C513.667 21.362 513.766 21.474 513.906 21.5781C514.047 21.6771 514.245 21.7708 514.5 21.8594C514.755 21.9479 515.081 22.0365 515.477 22.125C516.169 22.2812 516.74 22.4688 517.188 22.6875C517.635 22.9062 517.969 23.1745 518.188 23.4922C518.406 23.8099 518.516 24.1953 518.516 24.6484C518.516 25.0182 518.438 25.3568 518.281 25.6641C518.13 25.9714 517.909 26.237 517.617 26.4609C517.331 26.6797 516.987 26.8516 516.586 26.9766C516.19 27.0964 515.745 27.1562 515.25 27.1562C514.505 27.1562 513.875 27.0234 513.359 26.7578C512.844 26.4922 512.453 26.1484 512.188 25.7266C511.922 25.3047 511.789 24.8594 511.789 24.3906H513.242C513.263 24.7865 513.378 25.1016 513.586 25.3359C513.794 25.5651 514.049 25.7292 514.352 25.8281C514.654 25.9219 514.953 25.9688 515.25 25.9688C515.646 25.9688 515.977 25.9167 516.242 25.8125C516.513 25.7083 516.719 25.5651 516.859 25.3828C517 25.2005 517.07 24.9922 517.07 24.7578Z" fill="black"/>
<path d="M577.531 16.6328L573.766 27H572.227L576.562 15.625H577.555L577.531 16.6328ZM580.688 27L576.914 16.6328L576.891 15.625H577.883L582.234 27H580.688ZM580.492 22.7891V24.0234H574.102V22.7891H580.492ZM586.922 25.9688C587.266 25.9688 587.583 25.8984 587.875 25.7578C588.167 25.6172 588.406 25.4245 588.594 25.1797C588.781 24.9297 588.888 24.6458 588.914 24.3281H590.289C590.263 24.8281 590.094 25.2943 589.781 25.7266C589.474 26.1536 589.07 26.5 588.57 26.7656C588.07 27.026 587.521 27.1562 586.922 27.1562C586.286 27.1562 585.732 27.0443 585.258 26.8203C584.789 26.5964 584.398 26.2891 584.086 25.8984C583.779 25.5078 583.547 25.0599 583.391 24.5547C583.24 24.0443 583.164 23.5052 583.164 22.9375V22.6094C583.164 22.0417 583.24 21.5052 583.391 21C583.547 20.4896 583.779 20.0391 584.086 19.6484C584.398 19.2578 584.789 18.9505 585.258 18.7266C585.732 18.5026 586.286 18.3906 586.922 18.3906C587.583 18.3906 588.161 18.526 588.656 18.7969C589.151 19.0625 589.539 19.4271 589.82 19.8906C590.107 20.349 590.263 20.8698 590.289 21.4531H588.914C588.888 21.1042 588.789 20.7891 588.617 20.5078C588.451 20.2266 588.221 20.0026 587.93 19.8359C587.643 19.6641 587.307 19.5781 586.922 19.5781C586.479 19.5781 586.107 19.6667 585.805 19.8438C585.508 20.0156 585.271 20.25 585.094 20.5469C584.922 20.8385 584.797 21.1641 584.719 21.5234C584.646 21.8776 584.609 22.2396 584.609 22.6094V22.9375C584.609 23.3073 584.646 23.6719 584.719 24.0312C584.792 24.3906 584.914 24.7161 585.086 25.0078C585.263 25.2995 585.5 25.5339 585.797 25.7109C586.099 25.8828 586.474 25.9688 586.922 25.9688ZM593.359 15V27H591.914V15H593.359ZM593.016 22.4531L592.414 22.4297C592.419 21.8516 592.505 21.3177 592.672 20.8281C592.839 20.3333 593.073 19.9036 593.375 19.5391C593.677 19.1745 594.036 18.8932 594.453 18.6953C594.875 18.4922 595.341 18.3906 595.852 18.3906C596.268 18.3906 596.643 18.4479 596.977 18.5625C597.31 18.6719 597.594 18.849 597.828 19.0938C598.068 19.3385 598.25 19.6562 598.375 20.0469C598.5 20.4323 598.562 20.9036 598.562 21.4609V27H597.109V21.4453C597.109 21.0026 597.044 20.6484 596.914 20.3828C596.784 20.112 596.594 19.9167 596.344 19.7969C596.094 19.6719 595.786 19.6094 595.422 19.6094C595.062 19.6094 594.734 19.6849 594.438 19.8359C594.146 19.987 593.893 20.1953 593.68 20.4609C593.471 20.7266 593.307 21.0312 593.188 21.375C593.073 21.7135 593.016 22.0729 593.016 22.4531ZM602.297 18.5469V27H600.844V18.5469H602.297ZM600.734 16.3047C600.734 16.0703 600.805 15.8724 600.945 15.7109C601.091 15.5495 601.305 15.4688 601.586 15.4688C601.862 15.4688 602.073 15.5495 602.219 15.7109C602.37 15.8724 602.445 16.0703 602.445 16.3047C602.445 16.5286 602.37 16.7214 602.219 16.8828C602.073 17.0391 601.862 17.1172 601.586 17.1172C601.305 17.1172 601.091 17.0391 600.945 16.8828C600.805 16.7214 600.734 16.5286 600.734 16.3047ZM608.125 27.1562C607.536 27.1562 607.003 27.0573 606.523 26.8594C606.049 26.6562 605.641 26.3724 605.297 26.0078C604.958 25.6432 604.698 25.2109 604.516 24.7109C604.333 24.2109 604.242 23.6641 604.242 23.0703V22.7422C604.242 22.0547 604.344 21.4427 604.547 20.9062C604.75 20.3646 605.026 19.9062 605.375 19.5312C605.724 19.1562 606.12 18.8724 606.562 18.6797C607.005 18.487 607.464 18.3906 607.938 18.3906C608.542 18.3906 609.062 18.4948 609.5 18.7031C609.943 18.9115 610.305 19.2031 610.586 19.5781C610.867 19.9479 611.076 20.3854 611.211 20.8906C611.346 21.3906 611.414 21.9375 611.414 22.5312V23.1797H605.102V22H609.969V21.8906C609.948 21.5156 609.87 21.151 609.734 20.7969C609.604 20.4427 609.396 20.151 609.109 19.9219C608.823 19.6927 608.432 19.5781 607.938 19.5781C607.609 19.5781 607.307 19.6484 607.031 19.7891C606.755 19.9245 606.518 20.1276 606.32 20.3984C606.122 20.6693 605.969 21 605.859 21.3906C605.75 21.7812 605.695 22.2318 605.695 22.7422V23.0703C605.695 23.4714 605.75 23.849 605.859 24.2031C605.974 24.5521 606.138 24.8594 606.352 25.125C606.57 25.3906 606.833 25.599 607.141 25.75C607.453 25.901 607.807 25.9766 608.203 25.9766C608.714 25.9766 609.146 25.8724 609.5 25.6641C609.854 25.4557 610.164 25.1771 610.43 24.8281L611.305 25.5234C611.122 25.7995 610.891 26.0625 610.609 26.3125C610.328 26.5625 609.982 26.7656 609.57 26.9219C609.164 27.0781 608.682 27.1562 608.125 27.1562ZM615.562 25.6953L617.875 18.5469H619.352L616.312 27H615.344L615.562 25.6953ZM613.633 18.5469L616.016 25.7344L616.18 27H615.211L612.148 18.5469H613.633ZM624.141 27.1562C623.552 27.1562 623.018 27.0573 622.539 26.8594C622.065 26.6562 621.656 26.3724 621.312 26.0078C620.974 25.6432 620.714 25.2109 620.531 24.7109C620.349 24.2109 620.258 23.6641 620.258 23.0703V22.7422C620.258 22.0547 620.359 21.4427 620.562 20.9062C620.766 20.3646 621.042 19.9062 621.391 19.5312C621.74 19.1562 622.135 18.8724 622.578 18.6797C623.021 18.487 623.479 18.3906 623.953 18.3906C624.557 18.3906 625.078 18.4948 625.516 18.7031C625.958 18.9115 626.32 19.2031 626.602 19.5781C626.883 19.9479 627.091 20.3854 627.227 20.8906C627.362 21.3906 627.43 21.9375 627.43 22.5312V23.1797H621.117V22H625.984V21.8906C625.964 21.5156 625.885 21.151 625.75 20.7969C625.62 20.4427 625.411 20.151 625.125 19.9219C624.839 19.6927 624.448 19.5781 623.953 19.5781C623.625 19.5781 623.323 19.6484 623.047 19.7891C622.771 19.9245 622.534 20.1276 622.336 20.3984C622.138 20.6693 621.984 21 621.875 21.3906C621.766 21.7812 621.711 22.2318 621.711 22.7422V23.0703C621.711 23.4714 621.766 23.849 621.875 24.2031C621.99 24.5521 622.154 24.8594 622.367 25.125C622.586 25.3906 622.849 25.599 623.156 25.75C623.469 25.901 623.823 25.9766 624.219 25.9766C624.729 25.9766 625.161 25.8724 625.516 25.6641C625.87 25.4557 626.18 25.1771 626.445 24.8281L627.32 25.5234C627.138 25.7995 626.906 26.0625 626.625 26.3125C626.344 26.5625 625.997 26.7656 625.586 26.9219C625.18 27.0781 624.698 27.1562 624.141 27.1562ZM630.555 20.2266V27H629.102V18.5469H630.477L630.555 20.2266ZM630.258 22.4531L629.586 22.4297C629.591 21.8516 629.667 21.3177 629.812 20.8281C629.958 20.3333 630.174 19.9036 630.461 19.5391C630.747 19.1745 631.104 18.8932 631.531 18.6953C631.958 18.4922 632.453 18.3906 633.016 18.3906C633.411 18.3906 633.776 18.4479 634.109 18.5625C634.443 18.6719 634.732 18.8464 634.977 19.0859C635.221 19.3255 635.411 19.6328 635.547 20.0078C635.682 20.3828 635.75 20.8359 635.75 21.3672V27H634.305V21.4375C634.305 20.9948 634.229 20.6406 634.078 20.375C633.932 20.1094 633.724 19.9167 633.453 19.7969C633.182 19.6719 632.865 19.6094 632.5 19.6094C632.073 19.6094 631.716 19.6849 631.43 19.8359C631.143 19.987 630.914 20.1953 630.742 20.4609C630.57 20.7266 630.445 21.0312 630.367 21.375C630.294 21.7135 630.258 22.0729 630.258 22.4531ZM635.734 21.6562L634.766 21.9531C634.771 21.4896 634.846 21.0443 634.992 20.6172C635.143 20.1901 635.359 19.8099 635.641 19.4766C635.927 19.1432 636.279 18.8802 636.695 18.6875C637.112 18.4896 637.589 18.3906 638.125 18.3906C638.578 18.3906 638.979 18.4505 639.328 18.5703C639.682 18.6901 639.979 18.875 640.219 19.125C640.464 19.3698 640.648 19.6849 640.773 20.0703C640.898 20.4557 640.961 20.9141 640.961 21.4453V27H639.508V21.4297C639.508 20.9557 639.432 20.5885 639.281 20.3281C639.135 20.0625 638.927 19.8776 638.656 19.7734C638.391 19.6641 638.073 19.6094 637.703 19.6094C637.385 19.6094 637.104 19.6641 636.859 19.7734C636.615 19.8828 636.409 20.0339 636.242 20.2266C636.076 20.4141 635.948 20.6302 635.859 20.875C635.776 21.1198 635.734 21.3802 635.734 21.6562ZM646.656 27.1562C646.068 27.1562 645.534 27.0573 645.055 26.8594C644.581 26.6562 644.172 26.3724 643.828 26.0078C643.49 25.6432 643.229 25.2109 643.047 24.7109C642.865 24.2109 642.773 23.6641 642.773 23.0703V22.7422C642.773 22.0547 642.875 21.4427 643.078 20.9062C643.281 20.3646 643.557 19.9062 643.906 19.5312C644.255 19.1562 644.651 18.8724 645.094 18.6797C645.536 18.487 645.995 18.3906 646.469 18.3906C647.073 18.3906 647.594 18.4948 648.031 18.7031C648.474 18.9115 648.836 19.2031 649.117 19.5781C649.398 19.9479 649.607 20.3854 649.742 20.8906C649.878 21.3906 649.945 21.9375 649.945 22.5312V23.1797H643.633V22H648.5V21.8906C648.479 21.5156 648.401 21.151 648.266 20.7969C648.135 20.4427 647.927 20.151 647.641 19.9219C647.354 19.6927 646.964 19.5781 646.469 19.5781C646.141 19.5781 645.839 19.6484 645.562 19.7891C645.286 19.9245 645.049 20.1276 644.852 20.3984C644.654 20.6693 644.5 21 644.391 21.3906C644.281 21.7812 644.227 22.2318 644.227 22.7422V23.0703C644.227 23.4714 644.281 23.849 644.391 24.2031C644.505 24.5521 644.669 24.8594 644.883 25.125C645.102 25.3906 645.365 25.599 645.672 25.75C645.984 25.901 646.339 25.9766 646.734 25.9766C647.245 25.9766 647.677 25.8724 648.031 25.6641C648.385 25.4557 648.695 25.1771 648.961 24.8281L649.836 25.5234C649.654 25.7995 649.422 26.0625 649.141 26.3125C648.859 26.5625 648.513 26.7656 648.102 26.9219C647.695 27.0781 647.214 27.1562 646.656 27.1562ZM653.078 20.3516V27H651.633V18.5469H653L653.078 20.3516ZM652.734 22.4531L652.133 22.4297C652.138 21.8516 652.224 21.3177 652.391 20.8281C652.557 20.3333 652.792 19.9036 653.094 19.5391C653.396 19.1745 653.755 18.8932 654.172 18.6953C654.594 18.4922 655.06 18.3906 655.57 18.3906C655.987 18.3906 656.362 18.4479 656.695 18.5625C657.029 18.6719 657.312 18.849 657.547 19.0938C657.786 19.3385 657.969 19.6562 658.094 20.0469C658.219 20.4323 658.281 20.9036 658.281 21.4609V27H656.828V21.4453C656.828 21.0026 656.763 20.6484 656.633 20.3828C656.503 20.112 656.312 19.9167 656.062 19.7969C655.812 19.6719 655.505 19.6094 655.141 19.6094C654.781 19.6094 654.453 19.6849 654.156 19.8359C653.865 19.987 653.612 20.1953 653.398 20.4609C653.19 20.7266 653.026 21.0312 652.906 21.375C652.792 21.7135 652.734 22.0729 652.734 22.4531ZM664.016 18.5469V19.6562H659.445V18.5469H664.016ZM660.992 16.4922H662.438V24.9062C662.438 25.1927 662.482 25.4089 662.57 25.5547C662.659 25.7005 662.773 25.7969 662.914 25.8438C663.055 25.8906 663.206 25.9141 663.367 25.9141C663.487 25.9141 663.612 25.9036 663.742 25.8828C663.878 25.8568 663.979 25.8359 664.047 25.8203L664.055 27C663.94 27.0365 663.789 27.0703 663.602 27.1016C663.419 27.138 663.198 27.1562 662.938 27.1562C662.583 27.1562 662.258 27.0859 661.961 26.9453C661.664 26.8047 661.427 26.5703 661.25 26.2422C661.078 25.9089 660.992 25.4609 660.992 24.8984V16.4922Z" fill="black"/>
<path d="M722.531 16.6328L718.766 27H717.227L721.562 15.625H722.555L722.531 16.6328ZM725.688 27L721.914 16.6328L721.891 15.625H722.883L727.234 27H725.688ZM725.492 22.7891V24.0234H719.102V22.7891H725.492ZM728.531 15H729.984V25.3594L729.859 27H728.531V15ZM735.695 22.7031V22.8672C735.695 23.4818 735.622 24.0521 735.477 24.5781C735.331 25.099 735.117 25.5521 734.836 25.9375C734.555 26.3229 734.211 26.6224 733.805 26.8359C733.398 27.0495 732.932 27.1562 732.406 27.1562C731.87 27.1562 731.398 27.0651 730.992 26.8828C730.591 26.6953 730.253 26.4271 729.977 26.0781C729.701 25.7292 729.479 25.3073 729.312 24.8125C729.151 24.3177 729.039 23.7604 728.977 23.1406V22.4219C729.039 21.7969 729.151 21.237 729.312 20.7422C729.479 20.2474 729.701 19.8255 729.977 19.4766C730.253 19.1224 730.591 18.8542 730.992 18.6719C731.393 18.4844 731.859 18.3906 732.391 18.3906C732.922 18.3906 733.393 18.4948 733.805 18.7031C734.216 18.9062 734.56 19.1979 734.836 19.5781C735.117 19.9583 735.331 20.4141 735.477 20.9453C735.622 21.4714 735.695 22.0573 735.695 22.7031ZM734.242 22.8672V22.7031C734.242 22.2812 734.203 21.8854 734.125 21.5156C734.047 21.1406 733.922 20.8125 733.75 20.5312C733.578 20.2448 733.352 20.0208 733.07 19.8594C732.789 19.6927 732.443 19.6094 732.031 19.6094C731.667 19.6094 731.349 19.6719 731.078 19.7969C730.812 19.9219 730.586 20.0911 730.398 20.3047C730.211 20.513 730.057 20.7526 729.938 21.0234C729.823 21.2891 729.737 21.5651 729.68 21.8516V23.7344C729.763 24.099 729.898 24.4505 730.086 24.7891C730.279 25.1224 730.534 25.3958 730.852 25.6094C731.174 25.8229 731.573 25.9297 732.047 25.9297C732.438 25.9297 732.771 25.8516 733.047 25.6953C733.328 25.5339 733.555 25.3125 733.727 25.0312C733.904 24.75 734.034 24.4245 734.117 24.0547C734.201 23.6849 734.242 23.2891 734.242 22.8672ZM737.141 22.8672V22.6875C737.141 22.0781 737.229 21.513 737.406 20.9922C737.583 20.4661 737.839 20.0104 738.172 19.625C738.505 19.2344 738.909 18.9323 739.383 18.7188C739.857 18.5 740.388 18.3906 740.977 18.3906C741.57 18.3906 742.104 18.5 742.578 18.7188C743.057 18.9323 743.464 19.2344 743.797 19.625C744.135 20.0104 744.393 20.4661 744.57 20.9922C744.747 21.513 744.836 22.0781 744.836 22.6875V22.8672C744.836 23.4766 744.747 24.0417 744.57 24.5625C744.393 25.0833 744.135 25.5391 743.797 25.9297C743.464 26.3151 743.06 26.6172 742.586 26.8359C742.117 27.0495 741.586 27.1562 740.992 27.1562C740.398 27.1562 739.865 27.0495 739.391 26.8359C738.917 26.6172 738.51 26.3151 738.172 25.9297C737.839 25.5391 737.583 25.0833 737.406 24.5625C737.229 24.0417 737.141 23.4766 737.141 22.8672ZM738.586 22.6875V22.8672C738.586 23.2891 738.635 23.6875 738.734 24.0625C738.833 24.4323 738.982 24.7604 739.18 25.0469C739.383 25.3333 739.635 25.5599 739.938 25.7266C740.24 25.888 740.591 25.9688 740.992 25.9688C741.388 25.9688 741.734 25.888 742.031 25.7266C742.333 25.5599 742.583 25.3333 742.781 25.0469C742.979 24.7604 743.128 24.4323 743.227 24.0625C743.331 23.6875 743.383 23.2891 743.383 22.8672V22.6875C743.383 22.2708 743.331 21.8776 743.227 21.5078C743.128 21.1328 742.977 20.8021 742.773 20.5156C742.576 20.224 742.326 19.9948 742.023 19.8281C741.727 19.6615 741.378 19.5781 740.977 19.5781C740.581 19.5781 740.232 19.6615 739.93 19.8281C739.633 19.9948 739.383 20.224 739.18 20.5156C738.982 20.8021 738.833 21.1328 738.734 21.5078C738.635 21.8776 738.586 22.2708 738.586 22.6875ZM751.82 25.0469V18.5469H753.273V27H751.891L751.82 25.0469ZM752.094 23.2656L752.695 23.25C752.695 23.8125 752.635 24.3333 752.516 24.8125C752.401 25.2865 752.214 25.6979 751.953 26.0469C751.693 26.3958 751.352 26.6693 750.93 26.8672C750.508 27.0599 749.995 27.1562 749.391 27.1562C748.979 27.1562 748.602 27.0964 748.258 26.9766C747.919 26.8568 747.628 26.6719 747.383 26.4219C747.138 26.1719 746.948 25.8464 746.812 25.4453C746.682 25.0443 746.617 24.5625 746.617 24V18.5469H748.062V24.0156C748.062 24.3958 748.104 24.7109 748.188 24.9609C748.276 25.2057 748.393 25.401 748.539 25.5469C748.69 25.6875 748.857 25.7865 749.039 25.8438C749.227 25.901 749.419 25.9297 749.617 25.9297C750.232 25.9297 750.719 25.8125 751.078 25.5781C751.438 25.3385 751.695 25.0182 751.852 24.6172C752.013 24.2109 752.094 23.7604 752.094 23.2656ZM759.016 18.5469V19.6562H754.445V18.5469H759.016ZM755.992 16.4922H757.438V24.9062C757.438 25.1927 757.482 25.4089 757.57 25.5547C757.659 25.7005 757.773 25.7969 757.914 25.8438C758.055 25.8906 758.206 25.9141 758.367 25.9141C758.487 25.9141 758.612 25.9036 758.742 25.8828C758.878 25.8568 758.979 25.8359 759.047 25.8203L759.055 27C758.94 27.0365 758.789 27.0703 758.602 27.1016C758.419 27.138 758.198 27.1562 757.938 27.1562C757.583 27.1562 757.258 27.0859 756.961 26.9453C756.664 26.8047 756.427 26.5703 756.25 26.2422C756.078 25.9089 755.992 25.4609 755.992 24.8984V16.4922ZM771.406 15.625H772.906V23.3203C772.906 24.1745 772.716 24.8854 772.336 25.4531C771.956 26.0208 771.451 26.4479 770.82 26.7344C770.195 27.0156 769.516 27.1562 768.781 27.1562C768.01 27.1562 767.312 27.0156 766.688 26.7344C766.068 26.4479 765.576 26.0208 765.211 25.4531C764.852 24.8854 764.672 24.1745 764.672 23.3203V15.625H766.164V23.3203C766.164 23.9141 766.273 24.4036 766.492 24.7891C766.711 25.1745 767.016 25.4609 767.406 25.6484C767.802 25.8359 768.26 25.9297 768.781 25.9297C769.307 25.9297 769.766 25.8359 770.156 25.6484C770.552 25.4609 770.859 25.1745 771.078 24.7891C771.297 24.4036 771.406 23.9141 771.406 23.3203V15.625ZM779.977 24.7578C779.977 24.5495 779.93 24.3568 779.836 24.1797C779.747 23.9974 779.562 23.8333 779.281 23.6875C779.005 23.5365 778.589 23.4062 778.031 23.2969C777.562 23.1979 777.138 23.0807 776.758 22.9453C776.383 22.8099 776.062 22.6458 775.797 22.4531C775.536 22.2604 775.336 22.0339 775.195 21.7734C775.055 21.513 774.984 21.2083 774.984 20.8594C774.984 20.526 775.057 20.2109 775.203 19.9141C775.354 19.6172 775.565 19.3542 775.836 19.125C776.112 18.8958 776.443 18.7161 776.828 18.5859C777.214 18.4557 777.643 18.3906 778.117 18.3906C778.794 18.3906 779.372 18.5104 779.852 18.75C780.331 18.9896 780.698 19.3099 780.953 19.7109C781.208 20.1068 781.336 20.5469 781.336 21.0312H779.891C779.891 20.7969 779.82 20.5703 779.68 20.3516C779.544 20.1276 779.344 19.9427 779.078 19.7969C778.818 19.651 778.497 19.5781 778.117 19.5781C777.716 19.5781 777.391 19.6406 777.141 19.7656C776.896 19.8854 776.716 20.0391 776.602 20.2266C776.492 20.4141 776.438 20.612 776.438 20.8203C776.438 20.9766 776.464 21.1172 776.516 21.2422C776.573 21.362 776.672 21.474 776.812 21.5781C776.953 21.6771 777.151 21.7708 777.406 21.8594C777.661 21.9479 777.987 22.0365 778.383 22.125C779.076 22.2812 779.646 22.4688 780.094 22.6875C780.542 22.9062 780.875 23.1745 781.094 23.4922C781.312 23.8099 781.422 24.1953 781.422 24.6484C781.422 25.0182 781.344 25.3568 781.188 25.6641C781.036 25.9714 780.815 26.237 780.523 26.4609C780.237 26.6797 779.893 26.8516 779.492 26.9766C779.096 27.0964 778.651 27.1562 778.156 27.1562C777.411 27.1562 776.781 27.0234 776.266 26.7578C775.75 26.4922 775.359 26.1484 775.094 25.7266C774.828 25.3047 774.695 24.8594 774.695 24.3906H776.148C776.169 24.7865 776.284 25.1016 776.492 25.3359C776.701 25.5651 776.956 25.7292 777.258 25.8281C777.56 25.9219 777.859 25.9688 778.156 25.9688C778.552 25.9688 778.883 25.9167 779.148 25.8125C779.419 25.7083 779.625 25.5651 779.766 25.3828C779.906 25.2005 779.977 24.9922 779.977 24.7578Z" fill="black"/>
<path d="M840.523 15.625V27H839.039V15.625H840.523ZM844.18 15.625V16.8594H835.391V15.625H844.18ZM848.375 27.1562C847.786 27.1562 847.253 27.0573 846.773 26.8594C846.299 26.6562 845.891 26.3724 845.547 26.0078C845.208 25.6432 844.948 25.2109 844.766 24.7109C844.583 24.2109 844.492 23.6641 844.492 23.0703V22.7422C844.492 22.0547 844.594 21.4427 844.797 20.9062C845 20.3646 845.276 19.9062 845.625 19.5312C845.974 19.1562 846.37 18.8724 846.812 18.6797C847.255 18.487 847.714 18.3906 848.188 18.3906C848.792 18.3906 849.312 18.4948 849.75 18.7031C850.193 18.9115 850.555 19.2031 850.836 19.5781C851.117 19.9479 851.326 20.3854 851.461 20.8906C851.596 21.3906 851.664 21.9375 851.664 22.5312V23.1797H845.352V22H850.219V21.8906C850.198 21.5156 850.12 21.151 849.984 20.7969C849.854 20.4427 849.646 20.151 849.359 19.9219C849.073 19.6927 848.682 19.5781 848.188 19.5781C847.859 19.5781 847.557 19.6484 847.281 19.7891C847.005 19.9245 846.768 20.1276 846.57 20.3984C846.372 20.6693 846.219 21 846.109 21.3906C846 21.7812 845.945 22.2318 845.945 22.7422V23.0703C845.945 23.4714 846 23.849 846.109 24.2031C846.224 24.5521 846.388 24.8594 846.602 25.125C846.82 25.3906 847.083 25.599 847.391 25.75C847.703 25.901 848.057 25.9766 848.453 25.9766C848.964 25.9766 849.396 25.8724 849.75 25.6641C850.104 25.4557 850.414 25.1771 850.68 24.8281L851.555 25.5234C851.372 25.7995 851.141 26.0625 850.859 26.3125C850.578 26.5625 850.232 26.7656 849.82 26.9219C849.414 27.0781 848.932 27.1562 848.375 27.1562ZM858.273 24.7578C858.273 24.5495 858.227 24.3568 858.133 24.1797C858.044 23.9974 857.859 23.8333 857.578 23.6875C857.302 23.5365 856.885 23.4062 856.328 23.2969C855.859 23.1979 855.435 23.0807 855.055 22.9453C854.68 22.8099 854.359 22.6458 854.094 22.4531C853.833 22.2604 853.633 22.0339 853.492 21.7734C853.352 21.513 853.281 21.2083 853.281 20.8594C853.281 20.526 853.354 20.2109 853.5 19.9141C853.651 19.6172 853.862 19.3542 854.133 19.125C854.409 18.8958 854.74 18.7161 855.125 18.5859C855.51 18.4557 855.94 18.3906 856.414 18.3906C857.091 18.3906 857.669 18.5104 858.148 18.75C858.628 18.9896 858.995 19.3099 859.25 19.7109C859.505 20.1068 859.633 20.5469 859.633 21.0312H858.188C858.188 20.7969 858.117 20.5703 857.977 20.3516C857.841 20.1276 857.641 19.9427 857.375 19.7969C857.115 19.651 856.794 19.5781 856.414 19.5781C856.013 19.5781 855.688 19.6406 855.438 19.7656C855.193 19.8854 855.013 20.0391 854.898 20.2266C854.789 20.4141 854.734 20.612 854.734 20.8203C854.734 20.9766 854.76 21.1172 854.812 21.2422C854.87 21.362 854.969 21.474 855.109 21.5781C855.25 21.6771 855.448 21.7708 855.703 21.8594C855.958 21.9479 856.284 22.0365 856.68 22.125C857.372 22.2812 857.943 22.4688 858.391 22.6875C858.839 22.9062 859.172 23.1745 859.391 23.4922C859.609 23.8099 859.719 24.1953 859.719 24.6484C859.719 25.0182 859.641 25.3568 859.484 25.6641C859.333 25.9714 859.112 26.237 858.82 26.4609C858.534 26.6797 858.19 26.8516 857.789 26.9766C857.393 27.0964 856.948 27.1562 856.453 27.1562C855.708 27.1562 855.078 27.0234 854.562 26.7578C854.047 26.4922 853.656 26.1484 853.391 25.7266C853.125 25.3047 852.992 24.8594 852.992 24.3906H854.445C854.466 24.7865 854.581 25.1016 854.789 25.3359C854.997 25.5651 855.253 25.7292 855.555 25.8281C855.857 25.9219 856.156 25.9688 856.453 25.9688C856.849 25.9688 857.18 25.9167 857.445 25.8125C857.716 25.7083 857.922 25.5651 858.062 25.3828C858.203 25.2005 858.273 24.9922 858.273 24.7578ZM865.156 18.5469V19.6562H860.586V18.5469H865.156ZM862.133 16.4922H863.578V24.9062C863.578 25.1927 863.622 25.4089 863.711 25.5547C863.799 25.7005 863.914 25.7969 864.055 25.8438C864.195 25.8906 864.346 25.9141 864.508 25.9141C864.628 25.9141 864.753 25.9036 864.883 25.8828C865.018 25.8568 865.12 25.8359 865.188 25.8203L865.195 27C865.081 27.0365 864.93 27.0703 864.742 27.1016C864.56 27.138 864.339 27.1562 864.078 27.1562C863.724 27.1562 863.398 27.0859 863.102 26.9453C862.805 26.8047 862.568 26.5703 862.391 26.2422C862.219 25.9089 862.133 25.4609 862.133 24.8984V16.4922ZM868.422 18.5469V27H866.969V18.5469H868.422ZM866.859 16.3047C866.859 16.0703 866.93 15.8724 867.07 15.7109C867.216 15.5495 867.43 15.4688 867.711 15.4688C867.987 15.4688 868.198 15.5495 868.344 15.7109C868.495 15.8724 868.57 16.0703 868.57 16.3047C868.57 16.5286 868.495 16.7214 868.344 16.8828C868.198 17.0391 867.987 17.1172 867.711 17.1172C867.43 17.1172 867.216 17.0391 867.07 16.8828C866.93 16.7214 866.859 16.5286 866.859 16.3047ZM872.18 20.2266V27H870.727V18.5469H872.102L872.18 20.2266ZM871.883 22.4531L871.211 22.4297C871.216 21.8516 871.292 21.3177 871.438 20.8281C871.583 20.3333 871.799 19.9036 872.086 19.5391C872.372 19.1745 872.729 18.8932 873.156 18.6953C873.583 18.4922 874.078 18.3906 874.641 18.3906C875.036 18.3906 875.401 18.4479 875.734 18.5625C876.068 18.6719 876.357 18.8464 876.602 19.0859C876.846 19.3255 877.036 19.6328 877.172 20.0078C877.307 20.3828 877.375 20.8359 877.375 21.3672V27H875.93V21.4375C875.93 20.9948 875.854 20.6406 875.703 20.375C875.557 20.1094 875.349 19.9167 875.078 19.7969C874.807 19.6719 874.49 19.6094 874.125 19.6094C873.698 19.6094 873.341 19.6849 873.055 19.8359C872.768 19.987 872.539 20.1953 872.367 20.4609C872.195 20.7266 872.07 21.0312 871.992 21.375C871.919 21.7135 871.883 22.0729 871.883 22.4531ZM877.359 21.6562L876.391 21.9531C876.396 21.4896 876.471 21.0443 876.617 20.6172C876.768 20.1901 876.984 19.8099 877.266 19.4766C877.552 19.1432 877.904 18.8802 878.32 18.6875C878.737 18.4896 879.214 18.3906 879.75 18.3906C880.203 18.3906 880.604 18.4505 880.953 18.5703C881.307 18.6901 881.604 18.875 881.844 19.125C882.089 19.3698 882.273 19.6849 882.398 20.0703C882.523 20.4557 882.586 20.9141 882.586 21.4453V27H881.133V21.4297C881.133 20.9557 881.057 20.5885 880.906 20.3281C880.76 20.0625 880.552 19.8776 880.281 19.7734C880.016 19.6641 879.698 19.6094 879.328 19.6094C879.01 19.6094 878.729 19.6641 878.484 19.7734C878.24 19.8828 878.034 20.0339 877.867 20.2266C877.701 20.4141 877.573 20.6302 877.484 20.875C877.401 21.1198 877.359 21.3802 877.359 21.6562ZM884.391 22.8672V22.6875C884.391 22.0781 884.479 21.513 884.656 20.9922C884.833 20.4661 885.089 20.0104 885.422 19.625C885.755 19.2344 886.159 18.9323 886.633 18.7188C887.107 18.5 887.638 18.3906 888.227 18.3906C888.82 18.3906 889.354 18.5 889.828 18.7188C890.307 18.9323 890.714 19.2344 891.047 19.625C891.385 20.0104 891.643 20.4661 891.82 20.9922C891.997 21.513 892.086 22.0781 892.086 22.6875V22.8672C892.086 23.4766 891.997 24.0417 891.82 24.5625C891.643 25.0833 891.385 25.5391 891.047 25.9297C890.714 26.3151 890.31 26.6172 889.836 26.8359C889.367 27.0495 888.836 27.1562 888.242 27.1562C887.648 27.1562 887.115 27.0495 886.641 26.8359C886.167 26.6172 885.76 26.3151 885.422 25.9297C885.089 25.5391 884.833 25.0833 884.656 24.5625C884.479 24.0417 884.391 23.4766 884.391 22.8672ZM885.836 22.6875V22.8672C885.836 23.2891 885.885 23.6875 885.984 24.0625C886.083 24.4323 886.232 24.7604 886.43 25.0469C886.633 25.3333 886.885 25.5599 887.188 25.7266C887.49 25.888 887.841 25.9688 888.242 25.9688C888.638 25.9688 888.984 25.888 889.281 25.7266C889.583 25.5599 889.833 25.3333 890.031 25.0469C890.229 24.7604 890.378 24.4323 890.477 24.0625C890.581 23.6875 890.633 23.2891 890.633 22.8672V22.6875C890.633 22.2708 890.581 21.8776 890.477 21.5078C890.378 21.1328 890.227 20.8021 890.023 20.5156C889.826 20.224 889.576 19.9948 889.273 19.8281C888.977 19.6615 888.628 19.5781 888.227 19.5781C887.831 19.5781 887.482 19.6615 887.18 19.8281C886.883 19.9948 886.633 20.224 886.43 20.5156C886.232 20.8021 886.083 21.1328 885.984 21.5078C885.885 21.8776 885.836 22.2708 885.836 22.6875ZM895.344 20.3516V27H893.898V18.5469H895.266L895.344 20.3516ZM895 22.4531L894.398 22.4297C894.404 21.8516 894.49 21.3177 894.656 20.8281C894.823 20.3333 895.057 19.9036 895.359 19.5391C895.661 19.1745 896.021 18.8932 896.438 18.6953C896.859 18.4922 897.326 18.3906 897.836 18.3906C898.253 18.3906 898.628 18.4479 898.961 18.5625C899.294 18.6719 899.578 18.849 899.812 19.0938C900.052 19.3385 900.234 19.6562 900.359 20.0469C900.484 20.4323 900.547 20.9036 900.547 21.4609V27H899.094V21.4453C899.094 21.0026 899.029 20.6484 898.898 20.3828C898.768 20.112 898.578 19.9167 898.328 19.7969C898.078 19.6719 897.771 19.6094 897.406 19.6094C897.047 19.6094 896.719 19.6849 896.422 19.8359C896.13 19.987 895.878 20.1953 895.664 20.4609C895.456 20.7266 895.292 21.0312 895.172 21.375C895.057 21.7135 895 22.0729 895 22.4531ZM904.312 18.5469V27H902.859V18.5469H904.312ZM902.75 16.3047C902.75 16.0703 902.82 15.8724 902.961 15.7109C903.107 15.5495 903.32 15.4688 903.602 15.4688C903.878 15.4688 904.089 15.5495 904.234 15.7109C904.385 15.8724 904.461 16.0703 904.461 16.3047C904.461 16.5286 904.385 16.7214 904.234 16.8828C904.089 17.0391 903.878 17.1172 903.602 17.1172C903.32 17.1172 903.107 17.0391 902.961 16.8828C902.82 16.7214 902.75 16.5286 902.75 16.3047ZM911.617 25.5547V21.2031C911.617 20.8698 911.549 20.5807 911.414 20.3359C911.284 20.0859 911.086 19.8932 910.82 19.7578C910.555 19.6224 910.227 19.5547 909.836 19.5547C909.471 19.5547 909.151 19.6172 908.875 19.7422C908.604 19.8672 908.391 20.0312 908.234 20.2344C908.083 20.4375 908.008 20.6562 908.008 20.8906H906.562C906.562 20.5885 906.641 20.2891 906.797 19.9922C906.953 19.6953 907.177 19.4271 907.469 19.1875C907.766 18.9427 908.12 18.75 908.531 18.6094C908.948 18.4635 909.411 18.3906 909.922 18.3906C910.536 18.3906 911.078 18.4948 911.547 18.7031C912.021 18.9115 912.391 19.2266 912.656 19.6484C912.927 20.0651 913.062 20.5885 913.062 21.2188V25.1562C913.062 25.4375 913.086 25.737 913.133 26.0547C913.185 26.3724 913.26 26.6458 913.359 26.875V27H911.852C911.779 26.8333 911.721 26.612 911.68 26.3359C911.638 26.0547 911.617 25.7943 911.617 25.5547ZM911.867 21.875L911.883 22.8906H910.422C910.01 22.8906 909.643 22.9245 909.32 22.9922C908.997 23.0547 908.727 23.151 908.508 23.2812C908.289 23.4115 908.122 23.5755 908.008 23.7734C907.893 23.9661 907.836 24.1927 907.836 24.4531C907.836 24.7188 907.896 24.9609 908.016 25.1797C908.135 25.3984 908.315 25.5729 908.555 25.7031C908.799 25.8281 909.099 25.8906 909.453 25.8906C909.896 25.8906 910.286 25.7969 910.625 25.6094C910.964 25.4219 911.232 25.1927 911.43 24.9219C911.633 24.651 911.742 24.388 911.758 24.1328L912.375 24.8281C912.339 25.0469 912.24 25.2891 912.078 25.5547C911.917 25.8203 911.701 26.0755 911.43 26.3203C911.164 26.5599 910.846 26.7604 910.477 26.9219C910.112 27.0781 909.701 27.1562 909.242 27.1562C908.669 27.1562 908.167 27.0443 907.734 26.8203C907.307 26.5964 906.974 26.2969 906.734 25.9219C906.5 25.5417 906.383 25.1172 906.383 24.6484C906.383 24.1953 906.471 23.7969 906.648 23.4531C906.826 23.1042 907.081 22.8151 907.414 22.5859C907.747 22.3516 908.148 22.1745 908.617 22.0547C909.086 21.9349 909.609 21.875 910.188 21.875H911.867ZM916.906 15V27H915.453V15H916.906Z" fill="black"/>
</g>
<rect x="960.5" y="1.5" width="81" height="41" rx="5.5" stroke="black"/>
<path d="M989.219 25.7734V27H983.531V25.7734H989.219ZM983.828 15.625V27H982.32V15.625H983.828ZM990.344 22.8672V22.6875C990.344 22.0781 990.432 21.513 990.609 20.9922C990.786 20.4661 991.042 20.0104 991.375 19.625C991.708 19.2344 992.112 18.9323 992.586 18.7188C993.06 18.5 993.591 18.3906 994.18 18.3906C994.773 18.3906 995.307 18.5 995.781 18.7188C996.26 18.9323 996.667 19.2344 997 19.625C997.339 20.0104 997.596 20.4661 997.773 20.9922C997.951 21.513 998.039 22.0781 998.039 22.6875V22.8672C998.039 23.4766 997.951 24.0417 997.773 24.5625C997.596 25.0833 997.339 25.5391 997 25.9297C996.667 26.3151 996.263 26.6172 995.789 26.8359C995.32 27.0495 994.789 27.1562 994.195 27.1562C993.602 27.1562 993.068 27.0495 992.594 26.8359C992.12 26.6172 991.714 26.3151 991.375 25.9297C991.042 25.5391 990.786 25.0833 990.609 24.5625C990.432 24.0417 990.344 23.4766 990.344 22.8672ZM991.789 22.6875V22.8672C991.789 23.2891 991.839 23.6875 991.938 24.0625C992.036 24.4323 992.185 24.7604 992.383 25.0469C992.586 25.3333 992.839 25.5599 993.141 25.7266C993.443 25.888 993.794 25.9688 994.195 25.9688C994.591 25.9688 994.938 25.888 995.234 25.7266C995.536 25.5599 995.786 25.3333 995.984 25.0469C996.182 24.7604 996.331 24.4323 996.43 24.0625C996.534 23.6875 996.586 23.2891 996.586 22.8672V22.6875C996.586 22.2708 996.534 21.8776 996.43 21.5078C996.331 21.1328 996.18 20.8021 995.977 20.5156C995.779 20.224 995.529 19.9948 995.227 19.8281C994.93 19.6615 994.581 19.5781 994.18 19.5781C993.784 19.5781 993.435 19.6615 993.133 19.8281C992.836 19.9948 992.586 20.224 992.383 20.5156C992.185 20.8021 992.036 21.1328 991.938 21.5078C991.839 21.8776 991.789 22.2708 991.789 22.6875ZM1005.33 18.5469H1006.64V26.8203C1006.64 27.5651 1006.49 28.2005 1006.19 28.7266C1005.89 29.2526 1005.46 29.651 1004.92 29.9219C1004.39 30.1979 1003.77 30.3359 1003.06 30.3359C1002.77 30.3359 1002.43 30.2891 1002.03 30.1953C1001.64 30.1068 1001.26 29.9531 1000.88 29.7344C1000.5 29.5208 1000.18 29.2318 999.93 28.8672L1000.69 28.0078C1001.04 28.4349 1001.41 28.7318 1001.8 28.8984C1002.19 29.0651 1002.57 29.1484 1002.95 29.1484C1003.41 29.1484 1003.81 29.0625 1004.14 28.8906C1004.47 28.7188 1004.73 28.4635 1004.91 28.125C1005.1 27.7917 1005.2 27.3802 1005.2 26.8906V20.4062L1005.33 18.5469ZM999.508 22.8672V22.7031C999.508 22.0573 999.583 21.4714 999.734 20.9453C999.891 20.4141 1000.11 19.9583 1000.4 19.5781C1000.69 19.1979 1001.04 18.9062 1001.45 18.7031C1001.86 18.4948 1002.33 18.3906 1002.84 18.3906C1003.38 18.3906 1003.84 18.4844 1004.23 18.6719C1004.64 18.8542 1004.97 19.1224 1005.25 19.4766C1005.53 19.8255 1005.75 20.2474 1005.91 20.7422C1006.08 21.237 1006.19 21.7969 1006.25 22.4219V23.1406C1006.19 23.7604 1006.08 24.3177 1005.91 24.8125C1005.75 25.3073 1005.53 25.7292 1005.25 26.0781C1004.97 26.4271 1004.64 26.6953 1004.23 26.8828C1003.83 27.0651 1003.36 27.1562 1002.83 27.1562C1002.32 27.1562 1001.86 27.0495 1001.45 26.8359C1001.05 26.6224 1000.7 26.3229 1000.41 25.9375C1000.11 25.5521 999.891 25.099 999.734 24.5781C999.583 24.0521 999.508 23.4818 999.508 22.8672ZM1000.95 22.7031V22.8672C1000.95 23.2891 1000.99 23.6849 1001.08 24.0547C1001.17 24.4245 1001.3 24.75 1001.48 25.0312C1001.66 25.3125 1001.89 25.5339 1002.17 25.6953C1002.45 25.8516 1002.79 25.9297 1003.18 25.9297C1003.66 25.9297 1004.05 25.8281 1004.37 25.625C1004.68 25.4219 1004.93 25.1536 1005.11 24.8203C1005.3 24.487 1005.44 24.125 1005.55 23.7344V21.8516C1005.49 21.5651 1005.4 21.2891 1005.28 21.0234C1005.17 20.7526 1005.02 20.513 1004.83 20.3047C1004.65 20.0911 1004.42 19.9219 1004.15 19.7969C1003.88 19.6719 1003.56 19.6094 1003.2 19.6094C1002.8 19.6094 1002.46 19.6927 1002.17 19.8594C1001.89 20.0208 1001.66 20.2448 1001.48 20.5312C1001.3 20.8125 1001.17 21.1406 1001.08 21.5156C1000.99 21.8854 1000.95 22.2812 1000.95 22.7031ZM1010.41 18.5469V27H1008.95V18.5469H1010.41ZM1008.84 16.3047C1008.84 16.0703 1008.91 15.8724 1009.05 15.7109C1009.2 15.5495 1009.41 15.4688 1009.7 15.4688C1009.97 15.4688 1010.18 15.5495 1010.33 15.7109C1010.48 15.8724 1010.55 16.0703 1010.55 16.3047C1010.55 16.5286 1010.48 16.7214 1010.33 16.8828C1010.18 17.0391 1009.97 17.1172 1009.7 17.1172C1009.41 17.1172 1009.2 17.0391 1009.05 16.8828C1008.91 16.7214 1008.84 16.5286 1008.84 16.3047ZM1014.17 20.3516V27H1012.73V18.5469H1014.09L1014.17 20.3516ZM1013.83 22.4531L1013.23 22.4297C1013.23 21.8516 1013.32 21.3177 1013.48 20.8281C1013.65 20.3333 1013.89 19.9036 1014.19 19.5391C1014.49 19.1745 1014.85 18.8932 1015.27 18.6953C1015.69 18.4922 1016.15 18.3906 1016.66 18.3906C1017.08 18.3906 1017.46 18.4479 1017.79 18.5625C1018.12 18.6719 1018.41 18.849 1018.64 19.0938C1018.88 19.3385 1019.06 19.6562 1019.19 20.0469C1019.31 20.4323 1019.38 20.9036 1019.38 21.4609V27H1017.92V21.4453C1017.92 21.0026 1017.86 20.6484 1017.73 20.3828C1017.6 20.112 1017.41 19.9167 1017.16 19.7969C1016.91 19.6719 1016.6 19.6094 1016.23 19.6094C1015.88 19.6094 1015.55 19.6849 1015.25 19.8359C1014.96 19.987 1014.71 20.1953 1014.49 20.4609C1014.28 20.7266 1014.12 21.0312 1014 21.375C1013.89 21.7135 1013.83 22.0729 1013.83 22.4531Z" fill="black"/>
<rect x="1056.5" y="1.5" width="96" height="41" rx="5.5" fill="black"/>
<rect x="1056.5" y="1.5" width="96" height="41" rx="5.5" stroke="black"/>
<path d="M1084.38 24.125C1084.38 23.8594 1084.34 23.625 1084.26 23.4219C1084.18 23.2135 1084.04 23.026 1083.84 22.8594C1083.64 22.6927 1083.36 22.5339 1083.01 22.3828C1082.66 22.2318 1082.22 22.0781 1081.68 21.9219C1081.12 21.7552 1080.61 21.5703 1080.16 21.3672C1079.7 21.1589 1079.32 20.9219 1078.99 20.6562C1078.67 20.3906 1078.42 20.0859 1078.25 19.7422C1078.08 19.3984 1077.99 19.0052 1077.99 18.5625C1077.99 18.1198 1078.08 17.7109 1078.27 17.3359C1078.45 16.9609 1078.71 16.6354 1079.05 16.3594C1079.39 16.0781 1079.8 15.8594 1080.27 15.7031C1080.75 15.5469 1081.28 15.4688 1081.86 15.4688C1082.71 15.4688 1083.44 15.6328 1084.03 15.9609C1084.63 16.2839 1085.09 16.7083 1085.4 17.2344C1085.71 17.7552 1085.87 18.3125 1085.87 18.9062H1084.37C1084.37 18.4792 1084.28 18.1016 1084.09 17.7734C1083.91 17.4401 1083.64 17.1797 1083.27 16.9922C1082.9 16.7995 1082.43 16.7031 1081.86 16.7031C1081.32 16.7031 1080.88 16.7839 1080.53 16.9453C1080.18 17.1068 1079.92 17.3255 1079.75 17.6016C1079.58 17.8776 1079.5 18.1927 1079.5 18.5469C1079.5 18.7865 1079.55 19.0052 1079.65 19.2031C1079.75 19.3958 1079.91 19.5755 1080.12 19.7422C1080.34 19.9089 1080.62 20.0625 1080.95 20.2031C1081.29 20.3438 1081.7 20.4792 1082.16 20.6094C1082.81 20.7917 1083.37 20.9948 1083.84 21.2188C1084.3 21.4427 1084.69 21.6953 1084.99 21.9766C1085.3 22.2526 1085.53 22.5677 1085.67 22.9219C1085.82 23.2708 1085.9 23.6667 1085.9 24.1094C1085.9 24.5729 1085.8 24.9922 1085.62 25.3672C1085.43 25.7422 1085.16 26.0625 1084.81 26.3281C1084.46 26.5938 1084.04 26.7995 1083.55 26.9453C1083.07 27.0859 1082.53 27.1562 1081.93 27.1562C1081.4 27.1562 1080.89 27.0833 1080.38 26.9375C1079.87 26.7917 1079.41 26.5729 1078.99 26.2812C1078.58 25.9896 1078.25 25.6302 1078 25.2031C1077.76 24.7708 1077.63 24.2708 1077.63 23.7031H1079.13C1079.13 24.0938 1079.21 24.4297 1079.36 24.7109C1079.51 24.987 1079.72 25.2161 1079.98 25.3984C1080.24 25.5807 1080.54 25.7161 1080.88 25.8047C1081.21 25.888 1081.57 25.9297 1081.93 25.9297C1082.46 25.9297 1082.9 25.8568 1083.27 25.7109C1083.63 25.5651 1083.91 25.3568 1084.09 25.0859C1084.29 24.8151 1084.38 24.4948 1084.38 24.125ZM1089.17 18.5469V27H1087.72V18.5469H1089.17ZM1087.61 16.3047C1087.61 16.0703 1087.68 15.8724 1087.82 15.7109C1087.97 15.5495 1088.18 15.4688 1088.46 15.4688C1088.74 15.4688 1088.95 15.5495 1089.09 15.7109C1089.24 15.8724 1089.32 16.0703 1089.32 16.3047C1089.32 16.5286 1089.24 16.7214 1089.09 16.8828C1088.95 17.0391 1088.74 17.1172 1088.46 17.1172C1088.18 17.1172 1087.97 17.0391 1087.82 16.8828C1087.68 16.7214 1087.61 16.5286 1087.61 16.3047ZM1096.97 18.5469H1098.28V26.8203C1098.28 27.5651 1098.13 28.2005 1097.83 28.7266C1097.53 29.2526 1097.1 29.651 1096.56 29.9219C1096.03 30.1979 1095.41 30.3359 1094.7 30.3359C1094.41 30.3359 1094.07 30.2891 1093.67 30.1953C1093.28 30.1068 1092.9 29.9531 1092.52 29.7344C1092.14 29.5208 1091.83 29.2318 1091.57 28.8672L1092.33 28.0078C1092.68 28.4349 1093.05 28.7318 1093.44 28.8984C1093.83 29.0651 1094.21 29.1484 1094.59 29.1484C1095.05 29.1484 1095.45 29.0625 1095.78 28.8906C1096.11 28.7188 1096.37 28.4635 1096.55 28.125C1096.74 27.7917 1096.84 27.3802 1096.84 26.8906V20.4062L1096.97 18.5469ZM1091.15 22.8672V22.7031C1091.15 22.0573 1091.22 21.4714 1091.38 20.9453C1091.53 20.4141 1091.75 19.9583 1092.04 19.5781C1092.33 19.1979 1092.68 18.9062 1093.09 18.7031C1093.51 18.4948 1093.97 18.3906 1094.48 18.3906C1095.02 18.3906 1095.48 18.4844 1095.88 18.6719C1096.28 18.8542 1096.61 19.1224 1096.89 19.4766C1097.17 19.8255 1097.39 20.2474 1097.55 20.7422C1097.72 21.237 1097.83 21.7969 1097.89 22.4219V23.1406C1097.83 23.7604 1097.72 24.3177 1097.55 24.8125C1097.39 25.3073 1097.17 25.7292 1096.89 26.0781C1096.61 26.4271 1096.28 26.6953 1095.88 26.8828C1095.47 27.0651 1095.01 27.1562 1094.47 27.1562C1093.96 27.1562 1093.51 27.0495 1093.09 26.8359C1092.69 26.6224 1092.34 26.3229 1092.05 25.9375C1091.76 25.5521 1091.53 25.099 1091.38 24.5781C1091.22 24.0521 1091.15 23.4818 1091.15 22.8672ZM1092.59 22.7031V22.8672C1092.59 23.2891 1092.64 23.6849 1092.72 24.0547C1092.81 24.4245 1092.94 24.75 1093.12 25.0312C1093.3 25.3125 1093.53 25.5339 1093.81 25.6953C1094.09 25.8516 1094.43 25.9297 1094.82 25.9297C1095.3 25.9297 1095.7 25.8281 1096.01 25.625C1096.32 25.4219 1096.57 25.1536 1096.75 24.8203C1096.94 24.487 1097.08 24.125 1097.19 23.7344V21.8516C1097.13 21.5651 1097.04 21.2891 1096.92 21.0234C1096.81 20.7526 1096.66 20.513 1096.47 20.3047C1096.29 20.0911 1096.06 19.9219 1095.79 19.7969C1095.52 19.6719 1095.2 19.6094 1094.84 19.6094C1094.44 19.6094 1094.1 19.6927 1093.81 19.8594C1093.53 20.0208 1093.3 20.2448 1093.12 20.5312C1092.94 20.8125 1092.81 21.1406 1092.72 21.5156C1092.64 21.8854 1092.59 22.2812 1092.59 22.7031ZM1101.92 20.3516V27H1100.48V18.5469H1101.84L1101.92 20.3516ZM1101.58 22.4531L1100.98 22.4297C1100.98 21.8516 1101.07 21.3177 1101.23 20.8281C1101.4 20.3333 1101.64 19.9036 1101.94 19.5391C1102.24 19.1745 1102.6 18.8932 1103.02 18.6953C1103.44 18.4922 1103.9 18.3906 1104.41 18.3906C1104.83 18.3906 1105.21 18.4479 1105.54 18.5625C1105.87 18.6719 1106.16 18.849 1106.39 19.0938C1106.63 19.3385 1106.81 19.6562 1106.94 20.0469C1107.06 20.4323 1107.12 20.9036 1107.12 21.4609V27H1105.67V21.4453C1105.67 21.0026 1105.61 20.6484 1105.48 20.3828C1105.35 20.112 1105.16 19.9167 1104.91 19.7969C1104.66 19.6719 1104.35 19.6094 1103.98 19.6094C1103.62 19.6094 1103.3 19.6849 1103 19.8359C1102.71 19.987 1102.46 20.1953 1102.24 20.4609C1102.03 20.7266 1101.87 21.0312 1101.75 21.375C1101.64 21.7135 1101.58 22.0729 1101.58 22.4531ZM1120.02 15.625H1121.52V23.3203C1121.52 24.1745 1121.33 24.8854 1120.95 25.4531C1120.57 26.0208 1120.06 26.4479 1119.43 26.7344C1118.8 27.0156 1118.12 27.1562 1117.39 27.1562C1116.62 27.1562 1115.92 27.0156 1115.3 26.7344C1114.68 26.4479 1114.18 26.0208 1113.82 25.4531C1113.46 24.8854 1113.28 24.1745 1113.28 23.3203V15.625H1114.77V23.3203C1114.77 23.9141 1114.88 24.4036 1115.1 24.7891C1115.32 25.1745 1115.62 25.4609 1116.02 25.6484C1116.41 25.8359 1116.87 25.9297 1117.39 25.9297C1117.92 25.9297 1118.38 25.8359 1118.77 25.6484C1119.16 25.4609 1119.47 25.1745 1119.69 24.7891C1119.91 24.4036 1120.02 23.9141 1120.02 23.3203V15.625ZM1125.11 20.1719V30.25H1123.66V18.5469H1124.98L1125.11 20.1719ZM1130.8 22.7031V22.8672C1130.8 23.4818 1130.73 24.0521 1130.59 24.5781C1130.44 25.099 1130.23 25.5521 1129.95 25.9375C1129.67 26.3229 1129.33 26.6224 1128.92 26.8359C1128.52 27.0495 1128.05 27.1562 1127.52 27.1562C1126.99 27.1562 1126.51 27.0677 1126.1 26.8906C1125.69 26.7135 1125.34 26.4557 1125.05 26.1172C1124.77 25.7786 1124.54 25.3724 1124.37 24.8984C1124.2 24.4245 1124.09 23.8906 1124.02 23.2969V22.4219C1124.09 21.7969 1124.2 21.237 1124.38 20.7422C1124.55 20.2474 1124.77 19.8255 1125.05 19.4766C1125.34 19.1224 1125.69 18.8542 1126.09 18.6719C1126.5 18.4844 1126.97 18.3906 1127.5 18.3906C1128.03 18.3906 1128.5 18.4948 1128.91 18.7031C1129.33 18.9062 1129.67 19.1979 1129.95 19.5781C1130.23 19.9583 1130.45 20.4141 1130.59 20.9453C1130.73 21.4714 1130.8 22.0573 1130.8 22.7031ZM1129.35 22.8672V22.7031C1129.35 22.2812 1129.31 21.8854 1129.22 21.5156C1129.13 21.1406 1128.99 20.8125 1128.8 20.5312C1128.62 20.2448 1128.39 20.0208 1128.1 19.8594C1127.82 19.6927 1127.47 19.6094 1127.08 19.6094C1126.71 19.6094 1126.4 19.6719 1126.12 19.7969C1125.86 19.9219 1125.63 20.0911 1125.45 20.3047C1125.26 20.513 1125.1 20.7526 1124.98 21.0234C1124.87 21.2891 1124.78 21.5651 1124.73 21.8516V23.875C1124.83 24.2396 1124.98 24.5833 1125.16 24.9062C1125.35 25.224 1125.6 25.4818 1125.91 25.6797C1126.23 25.8724 1126.62 25.9688 1127.09 25.9688C1127.48 25.9688 1127.82 25.888 1128.1 25.7266C1128.39 25.5599 1128.62 25.3333 1128.8 25.0469C1128.99 24.7604 1129.13 24.4323 1129.22 24.0625C1129.31 23.6875 1129.35 23.2891 1129.35 22.8672Z" fill="white"/>
<defs>
<clipPath id="clip0_1_764">
<rect width="687" height="44" fill="white" transform="translate(242)"/>
</clipPath>
</defs>
</svg>
