<svg width="1154" height="54" viewBox="0 0 1154 54" fill="none" xmlns="http://www.w3.org/2000/svg">
<path d="M4.82617 27.5967H2.16699V26.5234H4.82617C5.34115 26.5234 5.75814 26.4414 6.07715 26.2773C6.39616 26.1133 6.62858 25.8854 6.77441 25.5938C6.9248 25.3021 7 24.9694 7 24.5957C7 24.2539 6.9248 23.9326 6.77441 23.6318C6.62858 23.3311 6.39616 23.0895 6.07715 22.9072C5.75814 22.7204 5.34115 22.627 4.82617 22.627H2.47461V31.5H1.15527V21.5469H4.82617C5.57812 21.5469 6.21387 21.6768 6.7334 21.9365C7.25293 22.1963 7.64714 22.5563 7.91602 23.0166C8.1849 23.4723 8.31934 23.9941 8.31934 24.582C8.31934 25.2201 8.1849 25.7646 7.91602 26.2158C7.64714 26.667 7.25293 27.0111 6.7334 27.248C6.21387 27.4805 5.57812 27.5967 4.82617 27.5967ZM11.0605 21V31.5H9.7959V21H11.0605ZM10.7598 27.5215L10.2334 27.501C10.238 26.9951 10.3132 26.528 10.459 26.0996C10.6048 25.6667 10.8099 25.2907 11.0742 24.9717C11.3385 24.6527 11.653 24.4066 12.0176 24.2334C12.3867 24.0557 12.7946 23.9668 13.2412 23.9668C13.6058 23.9668 13.9339 24.0169 14.2256 24.1172C14.5173 24.2129 14.7656 24.3678 14.9707 24.582C15.1803 24.7962 15.3398 25.0742 15.4492 25.416C15.5586 25.7533 15.6133 26.1657 15.6133 26.6533V31.5H14.3418V26.6396C14.3418 26.2523 14.2848 25.9424 14.1709 25.71C14.057 25.473 13.8906 25.3021 13.6719 25.1973C13.4531 25.0879 13.1842 25.0332 12.8652 25.0332C12.5508 25.0332 12.2637 25.0993 12.0039 25.2314C11.7487 25.3636 11.5277 25.5459 11.3408 25.7783C11.1585 26.0107 11.015 26.2773 10.9102 26.5781C10.8099 26.8743 10.7598 27.1888 10.7598 27.5215ZM17.1719 27.8838V27.7266C17.1719 27.1934 17.2493 26.6989 17.4043 26.2432C17.5592 25.7829 17.7826 25.3841 18.0742 25.0469C18.3659 24.7051 18.7191 24.4408 19.1338 24.2539C19.5485 24.0625 20.0133 23.9668 20.5283 23.9668C21.0479 23.9668 21.515 24.0625 21.9297 24.2539C22.349 24.4408 22.7044 24.7051 22.9961 25.0469C23.2923 25.3841 23.5179 25.7829 23.6729 26.2432C23.8278 26.6989 23.9053 27.1934 23.9053 27.7266V27.8838C23.9053 28.417 23.8278 28.9115 23.6729 29.3672C23.5179 29.8229 23.2923 30.2217 22.9961 30.5635C22.7044 30.9007 22.3512 31.165 21.9365 31.3564C21.5264 31.5433 21.0615 31.6367 20.542 31.6367C20.0225 31.6367 19.5553 31.5433 19.1406 31.3564C18.7259 31.165 18.3704 30.9007 18.0742 30.5635C17.7826 30.2217 17.5592 29.8229 17.4043 29.3672C17.2493 28.9115 17.1719 28.417 17.1719 27.8838ZM18.4365 27.7266V27.8838C18.4365 28.2529 18.4798 28.6016 18.5664 28.9297C18.653 29.2533 18.7829 29.5404 18.9561 29.791C19.1338 30.0417 19.3548 30.2399 19.6191 30.3857C19.8835 30.527 20.1911 30.5977 20.542 30.5977C20.8883 30.5977 21.1914 30.527 21.4512 30.3857C21.7155 30.2399 21.9342 30.0417 22.1074 29.791C22.2806 29.5404 22.4105 29.2533 22.4971 28.9297C22.5882 28.6016 22.6338 28.2529 22.6338 27.8838V27.7266C22.6338 27.362 22.5882 27.0179 22.4971 26.6943C22.4105 26.3662 22.2783 26.0768 22.1006 25.8262C21.9274 25.571 21.7087 25.3704 21.4443 25.2246C21.1846 25.0788 20.8792 25.0059 20.5283 25.0059C20.182 25.0059 19.8766 25.0788 19.6123 25.2246C19.3525 25.3704 19.1338 25.571 18.9561 25.8262C18.7829 26.0768 18.653 26.3662 18.5664 26.6943C18.4798 27.0179 18.4365 27.362 18.4365 27.7266ZM26.7559 25.6826V31.5H25.4912V24.1035H26.6875L26.7559 25.6826ZM26.4551 27.5215L25.9287 27.501C25.9333 26.9951 26.0085 26.528 26.1543 26.0996C26.3001 25.6667 26.5052 25.2907 26.7695 24.9717C27.0339 24.6527 27.3483 24.4066 27.7129 24.2334C28.082 24.0557 28.4899 23.9668 28.9365 23.9668C29.3011 23.9668 29.6292 24.0169 29.9209 24.1172C30.2126 24.2129 30.4609 24.3678 30.666 24.582C30.8757 24.7962 31.0352 25.0742 31.1445 25.416C31.2539 25.7533 31.3086 26.1657 31.3086 26.6533V31.5H30.0371V26.6396C30.0371 26.2523 29.9801 25.9424 29.8662 25.71C29.7523 25.473 29.5859 25.3021 29.3672 25.1973C29.1484 25.0879 28.8796 25.0332 28.5605 25.0332C28.2461 25.0332 27.959 25.0993 27.6992 25.2314C27.444 25.3636 27.223 25.5459 27.0361 25.7783C26.8538 26.0107 26.7103 26.2773 26.6055 26.5781C26.5052 26.8743 26.4551 27.1888 26.4551 27.5215ZM36.2988 31.6367C35.7839 31.6367 35.3167 31.5501 34.8975 31.377C34.4827 31.1992 34.125 30.9508 33.8242 30.6318C33.528 30.3128 33.3001 29.9346 33.1406 29.4971C32.9811 29.0596 32.9014 28.5811 32.9014 28.0615V27.7744C32.9014 27.1729 32.9902 26.6374 33.168 26.168C33.3457 25.694 33.5872 25.293 33.8926 24.9648C34.1979 24.6367 34.5443 24.3883 34.9316 24.2197C35.319 24.0511 35.7201 23.9668 36.1348 23.9668C36.6634 23.9668 37.1191 24.0579 37.502 24.2402C37.8893 24.4225 38.2061 24.6777 38.4521 25.0059C38.6982 25.3294 38.8805 25.7122 38.999 26.1543C39.1175 26.5918 39.1768 27.0703 39.1768 27.5898V28.1572H33.6533V27.125H37.9121V27.0293C37.8939 26.7012 37.8255 26.3822 37.707 26.0723C37.5931 25.7624 37.4108 25.5072 37.1602 25.3066C36.9095 25.1061 36.5677 25.0059 36.1348 25.0059C35.8477 25.0059 35.5833 25.0674 35.3418 25.1904C35.1003 25.3089 34.8929 25.4867 34.7197 25.7236C34.5465 25.9606 34.4121 26.25 34.3164 26.5918C34.2207 26.9336 34.1729 27.3278 34.1729 27.7744V28.0615C34.1729 28.4124 34.2207 28.7428 34.3164 29.0527C34.4167 29.3581 34.5602 29.627 34.7471 29.8594C34.9385 30.0918 35.1686 30.2741 35.4375 30.4062C35.7109 30.5384 36.0208 30.6045 36.3672 30.6045C36.8138 30.6045 37.1921 30.5133 37.502 30.3311C37.8118 30.1488 38.083 29.9049 38.3154 29.5996L39.0811 30.208C38.9215 30.4495 38.7188 30.6797 38.4727 30.8984C38.2266 31.1172 37.9235 31.2949 37.5635 31.4316C37.208 31.5684 36.7865 31.6367 36.2988 31.6367ZM51.9736 21.5469V31.5H50.6475L45.6367 23.8232V31.5H44.3174V21.5469H45.6367L50.668 29.2441V21.5469H51.9736ZM58.6455 29.791V24.1035H59.917V31.5H58.707L58.6455 29.791ZM58.8848 28.2324L59.4111 28.2188C59.4111 28.7109 59.3587 29.1667 59.2539 29.5859C59.1536 30.0007 58.9896 30.3607 58.7617 30.666C58.5339 30.9714 58.2354 31.2106 57.8662 31.3838C57.4971 31.5524 57.0482 31.6367 56.5195 31.6367C56.1595 31.6367 55.8291 31.5843 55.5283 31.4795C55.2321 31.3747 54.9769 31.2129 54.7627 30.9941C54.5485 30.7754 54.3822 30.4906 54.2637 30.1396C54.1497 29.7887 54.0928 29.3672 54.0928 28.875V24.1035H55.3574V28.8887C55.3574 29.2214 55.3939 29.4971 55.4668 29.7158C55.5443 29.93 55.6468 30.1009 55.7744 30.2285C55.9066 30.3516 56.0524 30.4382 56.2119 30.4883C56.376 30.5384 56.5446 30.5635 56.7178 30.5635C57.2555 30.5635 57.6816 30.4609 57.9961 30.2559C58.3105 30.0462 58.5361 29.766 58.6729 29.415C58.8141 29.0596 58.8848 28.6654 58.8848 28.2324ZM63.1025 25.5732V31.5H61.8311V24.1035H63.0342L63.1025 25.5732ZM62.8428 27.5215L62.2549 27.501C62.2594 26.9951 62.3255 26.528 62.4531 26.0996C62.5807 25.6667 62.7699 25.2907 63.0205 24.9717C63.2712 24.6527 63.5833 24.4066 63.957 24.2334C64.3307 24.0557 64.7637 23.9668 65.2559 23.9668C65.6022 23.9668 65.9212 24.0169 66.2129 24.1172C66.5046 24.2129 66.7575 24.3656 66.9717 24.5752C67.1859 24.7848 67.3522 25.0537 67.4707 25.3818C67.5892 25.71 67.6484 26.1064 67.6484 26.5713V31.5H66.3838V26.6328C66.3838 26.2454 66.3177 25.9355 66.1855 25.7031C66.0579 25.4707 65.8757 25.3021 65.6387 25.1973C65.4017 25.0879 65.1237 25.0332 64.8047 25.0332C64.431 25.0332 64.1188 25.0993 63.8682 25.2314C63.6175 25.3636 63.417 25.5459 63.2666 25.7783C63.1162 26.0107 63.0068 26.2773 62.9385 26.5781C62.8747 26.8743 62.8428 27.1888 62.8428 27.5215ZM67.6348 26.8242L66.7871 27.084C66.7917 26.6784 66.8577 26.2887 66.9854 25.915C67.1175 25.5413 67.3066 25.2087 67.5527 24.917C67.8034 24.6253 68.111 24.3952 68.4756 24.2266C68.8402 24.0534 69.2572 23.9668 69.7266 23.9668C70.123 23.9668 70.474 24.0192 70.7793 24.124C71.0892 24.2288 71.349 24.3906 71.5586 24.6094C71.7728 24.8236 71.9346 25.0993 72.0439 25.4365C72.1533 25.7738 72.208 26.1748 72.208 26.6396V31.5H70.9365V26.626C70.9365 26.2113 70.8704 25.89 70.7383 25.6621C70.6107 25.4297 70.4284 25.2679 70.1914 25.1768C69.959 25.0811 69.681 25.0332 69.3574 25.0332C69.0794 25.0332 68.8333 25.0811 68.6191 25.1768C68.4049 25.2725 68.2249 25.4046 68.0791 25.5732C67.9333 25.7373 67.8216 25.9264 67.7441 26.1406C67.6712 26.3548 67.6348 26.5827 67.6348 26.8242ZM74.1152 21H75.3867V30.0645L75.2773 31.5H74.1152V21ZM80.3838 27.7402V27.8838C80.3838 28.4215 80.32 28.9206 80.1924 29.3809C80.0648 29.8366 79.8779 30.2331 79.6318 30.5703C79.3857 30.9076 79.085 31.1696 78.7295 31.3564C78.374 31.5433 77.9661 31.6367 77.5059 31.6367C77.0365 31.6367 76.624 31.557 76.2686 31.3975C75.9176 31.2334 75.6214 30.9987 75.3799 30.6934C75.1383 30.388 74.9447 30.0189 74.7988 29.5859C74.6576 29.153 74.5596 28.6654 74.5049 28.123V27.4941C74.5596 26.9473 74.6576 26.4574 74.7988 26.0244C74.9447 25.5915 75.1383 25.2223 75.3799 24.917C75.6214 24.6071 75.9176 24.3724 76.2686 24.2129C76.6195 24.0488 77.0273 23.9668 77.4922 23.9668C77.957 23.9668 78.3695 24.0579 78.7295 24.2402C79.0895 24.418 79.3903 24.6732 79.6318 25.0059C79.8779 25.3385 80.0648 25.7373 80.1924 26.2021C80.32 26.6624 80.3838 27.1751 80.3838 27.7402ZM79.1123 27.8838V27.7402C79.1123 27.3711 79.0781 27.0247 79.0098 26.7012C78.9414 26.373 78.832 26.0859 78.6816 25.8398C78.5312 25.5892 78.333 25.3932 78.0869 25.252C77.8408 25.1061 77.5378 25.0332 77.1777 25.0332C76.8587 25.0332 76.5807 25.0879 76.3438 25.1973C76.1113 25.3066 75.9131 25.4548 75.749 25.6416C75.585 25.8239 75.4505 26.0335 75.3457 26.2705C75.2454 26.5029 75.1702 26.7445 75.1201 26.9951V28.6426C75.193 28.9616 75.3115 29.2692 75.4756 29.5654C75.6442 29.8571 75.8675 30.0964 76.1455 30.2832C76.4281 30.4701 76.7767 30.5635 77.1914 30.5635C77.5332 30.5635 77.8249 30.4951 78.0664 30.3584C78.3125 30.2171 78.5107 30.0234 78.6611 29.7773C78.8161 29.5312 78.93 29.2464 79.0029 28.9229C79.0758 28.5993 79.1123 28.2529 79.1123 27.8838ZM85.0527 31.6367C84.5378 31.6367 84.0706 31.5501 83.6514 31.377C83.2367 31.1992 82.8789 30.9508 82.5781 30.6318C82.2819 30.3128 82.054 29.9346 81.8945 29.4971C81.735 29.0596 81.6553 28.5811 81.6553 28.0615V27.7744C81.6553 27.1729 81.7441 26.6374 81.9219 26.168C82.0996 25.694 82.3411 25.293 82.6465 24.9648C82.9518 24.6367 83.2982 24.3883 83.6855 24.2197C84.0729 24.0511 84.474 23.9668 84.8887 23.9668C85.4173 23.9668 85.873 24.0579 86.2559 24.2402C86.6432 24.4225 86.96 24.6777 87.2061 25.0059C87.4521 25.3294 87.6344 25.7122 87.7529 26.1543C87.8714 26.5918 87.9307 27.0703 87.9307 27.5898V28.1572H82.4072V27.125H86.666V27.0293C86.6478 26.7012 86.5794 26.3822 86.4609 26.0723C86.347 25.7624 86.1647 25.5072 85.9141 25.3066C85.6634 25.1061 85.3216 25.0059 84.8887 25.0059C84.6016 25.0059 84.3372 25.0674 84.0957 25.1904C83.8542 25.3089 83.6468 25.4867 83.4736 25.7236C83.3005 25.9606 83.166 26.25 83.0703 26.5918C82.9746 26.9336 82.9268 27.3278 82.9268 27.7744V28.0615C82.9268 28.4124 82.9746 28.7428 83.0703 29.0527C83.1706 29.3581 83.3141 29.627 83.501 29.8594C83.6924 30.0918 83.9225 30.2741 84.1914 30.4062C84.4648 30.5384 84.7747 30.6045 85.1211 30.6045C85.5677 30.6045 85.946 30.5133 86.2559 30.3311C86.5658 30.1488 86.8369 29.9049 87.0693 29.5996L87.835 30.208C87.6755 30.4495 87.4727 30.6797 87.2266 30.8984C86.9805 31.1172 86.6774 31.2949 86.3174 31.4316C85.9619 31.5684 85.5404 31.6367 85.0527 31.6367ZM90.6719 25.2656V31.5H89.4072V24.1035H90.6377L90.6719 25.2656ZM92.9824 24.0625L92.9756 25.2383C92.8708 25.2155 92.7705 25.2018 92.6748 25.1973C92.5837 25.1882 92.4788 25.1836 92.3604 25.1836C92.0687 25.1836 91.8112 25.2292 91.5879 25.3203C91.3646 25.4115 91.1755 25.5391 91.0205 25.7031C90.8656 25.8672 90.7425 26.0632 90.6514 26.291C90.5648 26.5143 90.5078 26.7604 90.4805 27.0293L90.125 27.2344C90.125 26.7878 90.1683 26.3685 90.2549 25.9766C90.346 25.5846 90.485 25.2383 90.6719 24.9375C90.8587 24.6322 91.0957 24.3952 91.3828 24.2266C91.6745 24.0534 92.0208 23.9668 92.4219 23.9668C92.513 23.9668 92.6178 23.9782 92.7363 24.001C92.8548 24.0192 92.9368 24.0397 92.9824 24.0625ZM94.0967 30.8301C94.0967 30.6159 94.1628 30.4359 94.2949 30.29C94.4316 30.1396 94.6276 30.0645 94.8828 30.0645C95.138 30.0645 95.3317 30.1396 95.4639 30.29C95.6006 30.4359 95.6689 30.6159 95.6689 30.8301C95.6689 31.0397 95.6006 31.2174 95.4639 31.3633C95.3317 31.5091 95.138 31.582 94.8828 31.582C94.6276 31.582 94.4316 31.5091 94.2949 31.3633C94.1628 31.2174 94.0967 31.0397 94.0967 30.8301ZM94.1035 24.7939C94.1035 24.5798 94.1696 24.3997 94.3018 24.2539C94.4385 24.1035 94.6344 24.0283 94.8896 24.0283C95.1449 24.0283 95.3385 24.1035 95.4707 24.2539C95.6074 24.3997 95.6758 24.5798 95.6758 24.7939C95.6758 25.0036 95.6074 25.1813 95.4707 25.3271C95.3385 25.473 95.1449 25.5459 94.8896 25.5459C94.6344 25.5459 94.4385 25.473 94.3018 25.3271C94.1696 25.1813 94.1035 25.0036 94.1035 24.7939ZM102.136 30.4404H102.266C102.995 30.4404 103.587 30.3379 104.043 30.1328C104.499 29.9277 104.85 29.652 105.096 29.3057C105.342 28.9593 105.51 28.5697 105.602 28.1367C105.693 27.6992 105.738 27.2503 105.738 26.79V25.2656C105.738 24.8145 105.686 24.4134 105.581 24.0625C105.481 23.7116 105.34 23.4176 105.157 23.1807C104.979 22.9437 104.777 22.7637 104.549 22.6406C104.321 22.5176 104.079 22.4561 103.824 22.4561C103.533 22.4561 103.271 22.5153 103.038 22.6338C102.81 22.7477 102.617 22.9095 102.457 23.1191C102.302 23.3288 102.184 23.5749 102.102 23.8574C102.02 24.14 101.979 24.4476 101.979 24.7803C101.979 25.0765 102.015 25.3636 102.088 25.6416C102.161 25.9196 102.272 26.1702 102.423 26.3936C102.573 26.6169 102.76 26.7946 102.983 26.9268C103.211 27.0544 103.478 27.1182 103.783 27.1182C104.066 27.1182 104.33 27.0635 104.576 26.9541C104.827 26.8402 105.048 26.6875 105.239 26.4961C105.435 26.3001 105.59 26.0791 105.704 25.833C105.823 25.5869 105.891 25.3294 105.909 25.0605H106.511C106.511 25.4388 106.436 25.8125 106.285 26.1816C106.139 26.5462 105.934 26.8789 105.67 27.1797C105.406 27.4805 105.096 27.722 104.74 27.9043C104.385 28.082 103.997 28.1709 103.578 28.1709C103.086 28.1709 102.66 28.0752 102.3 27.8838C101.94 27.6924 101.644 27.4372 101.411 27.1182C101.183 26.7992 101.012 26.4437 100.898 26.0518C100.789 25.6553 100.734 25.2542 100.734 24.8486C100.734 24.3747 100.8 23.9303 100.933 23.5156C101.065 23.1009 101.261 22.7363 101.521 22.4219C101.78 22.1029 102.102 21.8545 102.484 21.6768C102.872 21.499 103.318 21.4102 103.824 21.4102C104.394 21.4102 104.879 21.5241 105.28 21.752C105.681 21.9798 106.007 22.2852 106.258 22.668C106.513 23.0508 106.7 23.4814 106.818 23.96C106.937 24.4385 106.996 24.9307 106.996 25.4365V25.8945C106.996 26.4095 106.962 26.9336 106.894 27.4668C106.83 27.9954 106.704 28.5013 106.518 28.9844C106.335 29.4674 106.069 29.9004 105.718 30.2832C105.367 30.6615 104.909 30.9622 104.344 31.1855C103.783 31.4043 103.09 31.5137 102.266 31.5137H102.136V30.4404ZM110.353 26.7627L109.341 26.5029L109.84 21.5469H114.946V22.7158H110.913L110.612 25.4229C110.795 25.318 111.025 25.2201 111.303 25.1289C111.585 25.0378 111.909 24.9922 112.273 24.9922C112.734 24.9922 113.146 25.0719 113.511 25.2314C113.875 25.3864 114.185 25.6097 114.44 25.9014C114.7 26.193 114.898 26.5439 115.035 26.9541C115.172 27.3643 115.24 27.8223 115.24 28.3281C115.24 28.8066 115.174 29.2464 115.042 29.6475C114.914 30.0485 114.721 30.3994 114.461 30.7002C114.201 30.9964 113.873 31.2266 113.477 31.3906C113.085 31.5547 112.622 31.6367 112.089 31.6367C111.688 31.6367 111.307 31.582 110.947 31.4727C110.592 31.3587 110.273 31.1878 109.99 30.96C109.712 30.7275 109.484 30.4404 109.307 30.0986C109.133 29.7523 109.024 29.3467 108.979 28.8818H110.182C110.236 29.2555 110.346 29.57 110.51 29.8252C110.674 30.0804 110.888 30.2741 111.152 30.4062C111.421 30.5339 111.733 30.5977 112.089 30.5977C112.39 30.5977 112.656 30.5452 112.889 30.4404C113.121 30.3356 113.317 30.1852 113.477 29.9893C113.636 29.7933 113.757 29.5563 113.839 29.2783C113.925 29.0003 113.969 28.6882 113.969 28.3418C113.969 28.0273 113.925 27.7357 113.839 27.4668C113.752 27.1979 113.622 26.9632 113.449 26.7627C113.281 26.5622 113.073 26.4072 112.827 26.2979C112.581 26.1839 112.299 26.127 111.979 26.127C111.556 26.127 111.234 26.1839 111.016 26.2979C110.801 26.4118 110.58 26.5667 110.353 26.7627ZM121.481 21.5332H121.591V22.6064H121.481C120.812 22.6064 120.251 22.7158 119.8 22.9346C119.349 23.1488 118.991 23.4382 118.727 23.8027C118.462 24.1628 118.271 24.5684 118.152 25.0195C118.038 25.4707 117.981 25.9287 117.981 26.3936V27.8564C117.981 28.2985 118.034 28.6904 118.139 29.0322C118.243 29.3695 118.387 29.6543 118.569 29.8867C118.752 30.1191 118.957 30.2946 119.185 30.4131C119.417 30.5316 119.659 30.5908 119.909 30.5908C120.201 30.5908 120.461 30.5361 120.688 30.4268C120.916 30.3128 121.108 30.1556 121.263 29.9551C121.422 29.75 121.543 29.5085 121.625 29.2305C121.707 28.9525 121.748 28.6471 121.748 28.3145C121.748 28.0182 121.712 27.7334 121.639 27.46C121.566 27.182 121.454 26.9359 121.304 26.7217C121.153 26.5029 120.964 26.332 120.736 26.209C120.513 26.0814 120.246 26.0176 119.937 26.0176C119.586 26.0176 119.257 26.1042 118.952 26.2773C118.651 26.446 118.403 26.6693 118.207 26.9473C118.016 27.2207 117.906 27.5192 117.879 27.8428L117.209 27.8359C117.273 27.3255 117.391 26.8903 117.564 26.5303C117.742 26.1657 117.961 25.8695 118.221 25.6416C118.485 25.4092 118.779 25.2406 119.103 25.1357C119.431 25.0264 119.777 24.9717 120.142 24.9717C120.638 24.9717 121.067 25.0651 121.427 25.252C121.787 25.4388 122.083 25.6895 122.315 26.0039C122.548 26.3138 122.719 26.6647 122.828 27.0566C122.942 27.444 122.999 27.8428 122.999 28.2529C122.999 28.7223 122.933 29.1621 122.801 29.5723C122.669 29.9824 122.47 30.3424 122.206 30.6523C121.946 30.9622 121.625 31.2038 121.242 31.377C120.859 31.5501 120.415 31.6367 119.909 31.6367C119.371 31.6367 118.902 31.5273 118.501 31.3086C118.1 31.0853 117.767 30.7891 117.503 30.4199C117.239 30.0508 117.04 29.6406 116.908 29.1895C116.776 28.7383 116.71 28.2803 116.71 27.8154V27.2207C116.71 26.5189 116.781 25.8307 116.922 25.1562C117.063 24.4818 117.307 23.8711 117.653 23.3242C118.004 22.7773 118.49 22.3421 119.109 22.0186C119.729 21.695 120.52 21.5332 121.481 21.5332ZM134.408 21.5469V22.2578L130.286 31.5H128.953L133.068 22.5859H127.682V21.5469H134.408ZM142.577 28.1504V29.1895H135.386V28.4443L139.843 21.5469H140.875L139.768 23.543L136.821 28.1504H142.577ZM141.189 21.5469V31.5H139.925V21.5469H141.189ZM150.247 30.4609V31.5H143.732V30.5908L146.993 26.9609C147.394 26.5143 147.704 26.1361 147.923 25.8262C148.146 25.5117 148.301 25.2314 148.388 24.9854C148.479 24.7347 148.524 24.4795 148.524 24.2197C148.524 23.8916 148.456 23.5954 148.319 23.3311C148.187 23.0622 147.991 22.848 147.731 22.6885C147.472 22.529 147.157 22.4492 146.788 22.4492C146.346 22.4492 145.977 22.5358 145.681 22.709C145.389 22.8776 145.17 23.1146 145.024 23.4199C144.879 23.7253 144.806 24.0762 144.806 24.4727H143.541C143.541 23.9121 143.664 23.3994 143.91 22.9346C144.156 22.4697 144.521 22.1006 145.004 21.8271C145.487 21.5492 146.082 21.4102 146.788 21.4102C147.417 21.4102 147.955 21.5218 148.401 21.7451C148.848 21.9639 149.19 22.2738 149.427 22.6748C149.668 23.0713 149.789 23.5361 149.789 24.0693C149.789 24.361 149.739 24.6572 149.639 24.958C149.543 25.2542 149.409 25.5505 149.235 25.8467C149.067 26.1429 148.868 26.4346 148.641 26.7217C148.417 27.0088 148.178 27.2913 147.923 27.5693L145.257 30.4609H150.247ZM161.8 28.1504V29.1895H154.608V28.4443L159.065 21.5469H160.098L158.99 23.543L156.044 28.1504H161.8ZM160.412 21.5469V31.5H159.147V21.5469H160.412ZM164.548 26.7627L163.536 26.5029L164.035 21.5469H169.142V22.7158H165.108L164.808 25.4229C164.99 25.318 165.22 25.2201 165.498 25.1289C165.781 25.0378 166.104 24.9922 166.469 24.9922C166.929 24.9922 167.341 25.0719 167.706 25.2314C168.071 25.3864 168.381 25.6097 168.636 25.9014C168.896 26.193 169.094 26.5439 169.23 26.9541C169.367 27.3643 169.436 27.8223 169.436 28.3281C169.436 28.8066 169.369 29.2464 169.237 29.6475C169.11 30.0485 168.916 30.3994 168.656 30.7002C168.396 30.9964 168.068 31.2266 167.672 31.3906C167.28 31.5547 166.817 31.6367 166.284 31.6367C165.883 31.6367 165.503 31.582 165.143 31.4727C164.787 31.3587 164.468 31.1878 164.186 30.96C163.908 30.7275 163.68 30.4404 163.502 30.0986C163.329 29.7523 163.219 29.3467 163.174 28.8818H164.377C164.432 29.2555 164.541 29.57 164.705 29.8252C164.869 30.0804 165.083 30.2741 165.348 30.4062C165.617 30.5339 165.929 30.5977 166.284 30.5977C166.585 30.5977 166.852 30.5452 167.084 30.4404C167.316 30.3356 167.512 30.1852 167.672 29.9893C167.831 29.7933 167.952 29.5563 168.034 29.2783C168.121 29.0003 168.164 28.6882 168.164 28.3418C168.164 28.0273 168.121 27.7357 168.034 27.4668C167.948 27.1979 167.818 26.9632 167.645 26.7627C167.476 26.5622 167.269 26.4072 167.022 26.2979C166.776 26.1839 166.494 26.127 166.175 26.127C165.751 26.127 165.43 26.1839 165.211 26.2979C164.997 26.4118 164.776 26.5667 164.548 26.7627ZM172.423 26.7627L171.411 26.5029L171.91 21.5469H177.017V22.7158H172.983L172.683 25.4229C172.865 25.318 173.095 25.2201 173.373 25.1289C173.656 25.0378 173.979 24.9922 174.344 24.9922C174.804 24.9922 175.216 25.0719 175.581 25.2314C175.946 25.3864 176.256 25.6097 176.511 25.9014C176.771 26.193 176.969 26.5439 177.105 26.9541C177.242 27.3643 177.311 27.8223 177.311 28.3281C177.311 28.8066 177.244 29.2464 177.112 29.6475C176.985 30.0485 176.791 30.3994 176.531 30.7002C176.271 30.9964 175.943 31.2266 175.547 31.3906C175.155 31.5547 174.692 31.6367 174.159 31.6367C173.758 31.6367 173.378 31.582 173.018 31.4727C172.662 31.3587 172.343 31.1878 172.061 30.96C171.783 30.7275 171.555 30.4404 171.377 30.0986C171.204 29.7523 171.094 29.3467 171.049 28.8818H172.252C172.307 29.2555 172.416 29.57 172.58 29.8252C172.744 30.0804 172.958 30.2741 173.223 30.4062C173.492 30.5339 173.804 30.5977 174.159 30.5977C174.46 30.5977 174.727 30.5452 174.959 30.4404C175.191 30.3356 175.387 30.1852 175.547 29.9893C175.706 29.7933 175.827 29.5563 175.909 29.2783C175.996 29.0003 176.039 28.6882 176.039 28.3418C176.039 28.0273 175.996 27.7357 175.909 27.4668C175.823 27.1979 175.693 26.9632 175.52 26.7627C175.351 26.5622 175.144 26.4072 174.897 26.2979C174.651 26.1839 174.369 26.127 174.05 26.127C173.626 26.127 173.305 26.1839 173.086 26.2979C172.872 26.4118 172.651 26.5667 172.423 26.7627ZM187.024 21.5332H187.134V22.6064H187.024C186.354 22.6064 185.794 22.7158 185.343 22.9346C184.892 23.1488 184.534 23.4382 184.27 23.8027C184.005 24.1628 183.814 24.5684 183.695 25.0195C183.581 25.4707 183.524 25.9287 183.524 26.3936V27.8564C183.524 28.2985 183.577 28.6904 183.682 29.0322C183.786 29.3695 183.93 29.6543 184.112 29.8867C184.295 30.1191 184.5 30.2946 184.728 30.4131C184.96 30.5316 185.201 30.5908 185.452 30.5908C185.744 30.5908 186.004 30.5361 186.231 30.4268C186.459 30.3128 186.651 30.1556 186.806 29.9551C186.965 29.75 187.086 29.5085 187.168 29.2305C187.25 28.9525 187.291 28.6471 187.291 28.3145C187.291 28.0182 187.255 27.7334 187.182 27.46C187.109 27.182 186.997 26.9359 186.847 26.7217C186.696 26.5029 186.507 26.332 186.279 26.209C186.056 26.0814 185.789 26.0176 185.479 26.0176C185.129 26.0176 184.8 26.1042 184.495 26.2773C184.194 26.446 183.946 26.6693 183.75 26.9473C183.559 27.2207 183.449 27.5192 183.422 27.8428L182.752 27.8359C182.816 27.3255 182.934 26.8903 183.107 26.5303C183.285 26.1657 183.504 25.8695 183.764 25.6416C184.028 25.4092 184.322 25.2406 184.646 25.1357C184.974 25.0264 185.32 24.9717 185.685 24.9717C186.181 24.9717 186.61 25.0651 186.97 25.252C187.33 25.4388 187.626 25.6895 187.858 26.0039C188.091 26.3138 188.262 26.6647 188.371 27.0566C188.485 27.444 188.542 27.8428 188.542 28.2529C188.542 28.7223 188.476 29.1621 188.344 29.5723C188.212 29.9824 188.013 30.3424 187.749 30.6523C187.489 30.9622 187.168 31.2038 186.785 31.377C186.402 31.5501 185.958 31.6367 185.452 31.6367C184.914 31.6367 184.445 31.5273 184.044 31.3086C183.643 31.0853 183.31 30.7891 183.046 30.4199C182.782 30.0508 182.583 29.6406 182.451 29.1895C182.319 28.7383 182.253 28.2803 182.253 27.8154V27.2207C182.253 26.5189 182.324 25.8307 182.465 25.1562C182.606 24.4818 182.85 23.8711 183.196 23.3242C183.547 22.7773 184.033 22.3421 184.652 22.0186C185.272 21.695 186.063 21.5332 187.024 21.5332ZM196.479 21.5469V22.2578L192.356 31.5H191.023L195.139 22.5859H189.752V21.5469H196.479ZM204.196 28.8066C204.196 29.4128 204.055 29.9277 203.772 30.3516C203.494 30.7708 203.116 31.0898 202.638 31.3086C202.164 31.5273 201.628 31.6367 201.031 31.6367C200.434 31.6367 199.896 31.5273 199.418 31.3086C198.939 31.0898 198.561 30.7708 198.283 30.3516C198.005 29.9277 197.866 29.4128 197.866 28.8066C197.866 28.4102 197.941 28.0479 198.092 27.7197C198.247 27.387 198.463 27.0977 198.741 26.8516C199.024 26.6055 199.356 26.4163 199.739 26.2842C200.127 26.1475 200.553 26.0791 201.018 26.0791C201.628 26.0791 202.173 26.1976 202.651 26.4346C203.13 26.667 203.506 26.9883 203.779 27.3984C204.057 27.8086 204.196 28.278 204.196 28.8066ZM202.925 28.7793C202.925 28.4102 202.845 28.0843 202.686 27.8018C202.526 27.5146 202.303 27.2913 202.016 27.1318C201.729 26.9723 201.396 26.8926 201.018 26.8926C200.63 26.8926 200.295 26.9723 200.013 27.1318C199.735 27.2913 199.518 27.5146 199.363 27.8018C199.208 28.0843 199.131 28.4102 199.131 28.7793C199.131 29.1621 199.206 29.4902 199.356 29.7637C199.511 30.0326 199.73 30.2399 200.013 30.3857C200.3 30.527 200.639 30.5977 201.031 30.5977C201.423 30.5977 201.76 30.527 202.043 30.3857C202.326 30.2399 202.542 30.0326 202.692 29.7637C202.847 29.4902 202.925 29.1621 202.925 28.7793ZM203.964 24.1377C203.964 24.6208 203.836 25.056 203.581 25.4434C203.326 25.8307 202.977 26.1361 202.535 26.3594C202.093 26.5827 201.592 26.6943 201.031 26.6943C200.462 26.6943 199.953 26.5827 199.507 26.3594C199.065 26.1361 198.718 25.8307 198.468 25.4434C198.217 25.056 198.092 24.6208 198.092 24.1377C198.092 23.5589 198.217 23.0667 198.468 22.6611C198.723 22.2555 199.072 21.9456 199.514 21.7314C199.956 21.5173 200.459 21.4102 201.024 21.4102C201.594 21.4102 202.1 21.5173 202.542 21.7314C202.984 21.9456 203.33 22.2555 203.581 22.6611C203.836 23.0667 203.964 23.5589 203.964 24.1377ZM202.699 24.1582C202.699 23.8255 202.629 23.5316 202.487 23.2764C202.346 23.0212 202.15 22.8206 201.899 22.6748C201.649 22.5244 201.357 22.4492 201.024 22.4492C200.692 22.4492 200.4 22.5199 200.149 22.6611C199.903 22.7979 199.71 22.9938 199.568 23.249C199.432 23.5042 199.363 23.8073 199.363 24.1582C199.363 24.5 199.432 24.7985 199.568 25.0537C199.71 25.3089 199.906 25.5072 200.156 25.6484C200.407 25.7897 200.699 25.8604 201.031 25.8604C201.364 25.8604 201.653 25.7897 201.899 25.6484C202.15 25.5072 202.346 25.3089 202.487 25.0537C202.629 24.7985 202.699 24.5 202.699 24.1582Z" fill="black"/>
<line x1="220.5" y1="42" x2="220.5" y2="12" stroke="#676767"/>
<path d="M244.479 30.4268V31.5H239.208V30.4268H244.479ZM239.475 21.5469V31.5H238.155V21.5469H239.475ZM243.781 25.8262V26.8994H239.208V25.8262H243.781ZM244.41 21.5469V22.627H239.208V21.5469H244.41ZM247.179 25.5732V31.5H245.907V24.1035H247.11L247.179 25.5732ZM246.919 27.5215L246.331 27.501C246.336 26.9951 246.402 26.528 246.529 26.0996C246.657 25.6667 246.846 25.2907 247.097 24.9717C247.347 24.6527 247.66 24.4066 248.033 24.2334C248.407 24.0557 248.84 23.9668 249.332 23.9668C249.678 23.9668 249.997 24.0169 250.289 24.1172C250.581 24.2129 250.834 24.3656 251.048 24.5752C251.262 24.7848 251.428 25.0537 251.547 25.3818C251.665 25.71 251.725 26.1064 251.725 26.5713V31.5H250.46V26.6328C250.46 26.2454 250.394 25.9355 250.262 25.7031C250.134 25.4707 249.952 25.3021 249.715 25.1973C249.478 25.0879 249.2 25.0332 248.881 25.0332C248.507 25.0332 248.195 25.0993 247.944 25.2314C247.694 25.3636 247.493 25.5459 247.343 25.7783C247.192 26.0107 247.083 26.2773 247.015 26.5781C246.951 26.8743 246.919 27.1888 246.919 27.5215ZM251.711 26.8242L250.863 27.084C250.868 26.6784 250.934 26.2887 251.062 25.915C251.194 25.5413 251.383 25.2087 251.629 24.917C251.88 24.6253 252.187 24.3952 252.552 24.2266C252.916 24.0534 253.333 23.9668 253.803 23.9668C254.199 23.9668 254.55 24.0192 254.855 24.124C255.165 24.2288 255.425 24.3906 255.635 24.6094C255.849 24.8236 256.011 25.0993 256.12 25.4365C256.229 25.7738 256.284 26.1748 256.284 26.6396V31.5H255.013V26.626C255.013 26.2113 254.947 25.89 254.814 25.6621C254.687 25.4297 254.505 25.2679 254.268 25.1768C254.035 25.0811 253.757 25.0332 253.434 25.0332C253.156 25.0332 252.91 25.0811 252.695 25.1768C252.481 25.2725 252.301 25.4046 252.155 25.5732C252.009 25.7373 251.898 25.9264 251.82 26.1406C251.747 26.3548 251.711 26.5827 251.711 26.8242ZM262.56 30.2354V26.4277C262.56 26.1361 262.5 25.8831 262.382 25.6689C262.268 25.4502 262.095 25.2816 261.862 25.1631C261.63 25.0446 261.343 24.9854 261.001 24.9854C260.682 24.9854 260.402 25.04 260.16 25.1494C259.923 25.2588 259.736 25.4023 259.6 25.5801C259.467 25.7578 259.401 25.9492 259.401 26.1543H258.137C258.137 25.89 258.205 25.6279 258.342 25.3682C258.479 25.1084 258.674 24.8737 258.93 24.6641C259.189 24.4499 259.499 24.2812 259.859 24.1582C260.224 24.0306 260.63 23.9668 261.076 23.9668C261.614 23.9668 262.088 24.0579 262.498 24.2402C262.913 24.4225 263.236 24.6982 263.469 25.0674C263.706 25.432 263.824 25.89 263.824 26.4414V29.8867C263.824 30.1328 263.845 30.3949 263.886 30.6729C263.931 30.9508 263.997 31.1901 264.084 31.3906V31.5H262.765C262.701 31.3542 262.651 31.1605 262.614 30.9189C262.578 30.6729 262.56 30.445 262.56 30.2354ZM262.778 27.0156L262.792 27.9043H261.514C261.154 27.9043 260.832 27.9339 260.55 27.9932C260.267 28.0479 260.03 28.1322 259.839 28.2461C259.647 28.36 259.502 28.5036 259.401 28.6768C259.301 28.8454 259.251 29.0436 259.251 29.2715C259.251 29.5039 259.303 29.7158 259.408 29.9072C259.513 30.0986 259.67 30.2513 259.88 30.3652C260.094 30.4746 260.356 30.5293 260.666 30.5293C261.053 30.5293 261.395 30.4473 261.691 30.2832C261.988 30.1191 262.222 29.9186 262.396 29.6816C262.573 29.4447 262.669 29.2145 262.683 28.9912L263.223 29.5996C263.191 29.791 263.104 30.0029 262.963 30.2354C262.822 30.4678 262.632 30.6911 262.396 30.9053C262.163 31.1149 261.885 31.2904 261.562 31.4316C261.243 31.5684 260.882 31.6367 260.481 31.6367C259.98 31.6367 259.54 31.5387 259.162 31.3428C258.788 31.1468 258.497 30.8848 258.287 30.5566C258.082 30.224 257.979 29.8525 257.979 29.4424C257.979 29.0459 258.057 28.6973 258.212 28.3965C258.367 28.0911 258.59 27.8382 258.882 27.6377C259.174 27.4326 259.524 27.2777 259.935 27.1729C260.345 27.068 260.803 27.0156 261.309 27.0156H262.778ZM267.188 24.1035V31.5H265.916V24.1035H267.188ZM265.82 22.1416C265.82 21.9365 265.882 21.7633 266.005 21.6221C266.132 21.4808 266.319 21.4102 266.565 21.4102C266.807 21.4102 266.992 21.4808 267.119 21.6221C267.251 21.7633 267.317 21.9365 267.317 22.1416C267.317 22.3376 267.251 22.5062 267.119 22.6475C266.992 22.7842 266.807 22.8525 266.565 22.8525C266.319 22.8525 266.132 22.7842 266.005 22.6475C265.882 22.5062 265.82 22.3376 265.82 22.1416ZM270.592 21V31.5H269.32V21H270.592ZM272.567 30.8301C272.567 30.6159 272.633 30.4359 272.766 30.29C272.902 30.1396 273.098 30.0645 273.354 30.0645C273.609 30.0645 273.802 30.1396 273.935 30.29C274.071 30.4359 274.14 30.6159 274.14 30.8301C274.14 31.0397 274.071 31.2174 273.935 31.3633C273.802 31.5091 273.609 31.582 273.354 31.582C273.098 31.582 272.902 31.5091 272.766 31.3633C272.633 31.2174 272.567 31.0397 272.567 30.8301ZM272.574 24.7939C272.574 24.5798 272.64 24.3997 272.772 24.2539C272.909 24.1035 273.105 24.0283 273.36 24.0283C273.616 24.0283 273.809 24.1035 273.941 24.2539C274.078 24.3997 274.146 24.5798 274.146 24.7939C274.146 25.0036 274.078 25.1813 273.941 25.3271C273.809 25.473 273.616 25.5459 273.36 25.5459C273.105 25.5459 272.909 25.473 272.772 25.3271C272.64 25.1813 272.574 25.0036 272.574 24.7939ZM277.387 24.1035V31.5H276.115V24.1035H277.387ZM276.02 22.1416C276.02 21.9365 276.081 21.7633 276.204 21.6221C276.332 21.4808 276.519 21.4102 276.765 21.4102C277.006 21.4102 277.191 21.4808 277.318 21.6221C277.451 21.7633 277.517 21.9365 277.517 22.1416C277.517 22.3376 277.451 22.5062 277.318 22.6475C277.191 22.7842 277.006 22.8525 276.765 22.8525C276.519 22.8525 276.332 22.7842 276.204 22.6475C276.081 22.5062 276.02 22.3376 276.02 22.1416ZM280.682 25.6826V31.5H279.417V24.1035H280.613L280.682 25.6826ZM280.381 27.5215L279.854 27.501C279.859 26.9951 279.934 26.528 280.08 26.0996C280.226 25.6667 280.431 25.2907 280.695 24.9717C280.96 24.6527 281.274 24.4066 281.639 24.2334C282.008 24.0557 282.416 23.9668 282.862 23.9668C283.227 23.9668 283.555 24.0169 283.847 24.1172C284.138 24.2129 284.387 24.3678 284.592 24.582C284.801 24.7962 284.961 25.0742 285.07 25.416C285.18 25.7533 285.234 26.1657 285.234 26.6533V31.5H283.963V26.6396C283.963 26.2523 283.906 25.9424 283.792 25.71C283.678 25.473 283.512 25.3021 283.293 25.1973C283.074 25.0879 282.805 25.0332 282.486 25.0332C282.172 25.0332 281.885 25.0993 281.625 25.2314C281.37 25.3636 281.149 25.5459 280.962 25.7783C280.78 26.0107 280.636 26.2773 280.531 26.5781C280.431 26.8743 280.381 27.1888 280.381 27.5215ZM289.042 31.5H287.777V23.3242C287.777 22.791 287.873 22.3421 288.064 21.9775C288.26 21.6084 288.541 21.3304 288.905 21.1436C289.27 20.9521 289.703 20.8564 290.204 20.8564C290.35 20.8564 290.496 20.8656 290.642 20.8838C290.792 20.902 290.938 20.9294 291.079 20.9658L291.011 21.998C290.915 21.9753 290.806 21.9593 290.683 21.9502C290.564 21.9411 290.446 21.9365 290.327 21.9365C290.058 21.9365 289.826 21.9912 289.63 22.1006C289.438 22.2054 289.293 22.3604 289.192 22.5654C289.092 22.7705 289.042 23.0234 289.042 23.3242V31.5ZM290.614 24.1035V25.0742H286.608V24.1035H290.614ZM291.688 27.8838V27.7266C291.688 27.1934 291.765 26.6989 291.92 26.2432C292.075 25.7829 292.298 25.3841 292.59 25.0469C292.882 24.7051 293.235 24.4408 293.649 24.2539C294.064 24.0625 294.529 23.9668 295.044 23.9668C295.563 23.9668 296.031 24.0625 296.445 24.2539C296.865 24.4408 297.22 24.7051 297.512 25.0469C297.808 25.3841 298.034 25.7829 298.188 26.2432C298.343 26.6989 298.421 27.1934 298.421 27.7266V27.8838C298.421 28.417 298.343 28.9115 298.188 29.3672C298.034 29.8229 297.808 30.2217 297.512 30.5635C297.22 30.9007 296.867 31.165 296.452 31.3564C296.042 31.5433 295.577 31.6367 295.058 31.6367C294.538 31.6367 294.071 31.5433 293.656 31.3564C293.242 31.165 292.886 30.9007 292.59 30.5635C292.298 30.2217 292.075 29.8229 291.92 29.3672C291.765 28.9115 291.688 28.417 291.688 27.8838ZM292.952 27.7266V27.8838C292.952 28.2529 292.995 28.6016 293.082 28.9297C293.169 29.2533 293.299 29.5404 293.472 29.791C293.649 30.0417 293.87 30.2399 294.135 30.3857C294.399 30.527 294.707 30.5977 295.058 30.5977C295.404 30.5977 295.707 30.527 295.967 30.3857C296.231 30.2399 296.45 30.0417 296.623 29.791C296.796 29.5404 296.926 29.2533 297.013 28.9297C297.104 28.6016 297.149 28.2529 297.149 27.8838V27.7266C297.149 27.362 297.104 27.0179 297.013 26.6943C296.926 26.3662 296.794 26.0768 296.616 25.8262C296.443 25.571 296.224 25.3704 295.96 25.2246C295.7 25.0788 295.395 25.0059 295.044 25.0059C294.698 25.0059 294.392 25.0788 294.128 25.2246C293.868 25.3704 293.649 25.571 293.472 25.8262C293.299 26.0768 293.169 26.3662 293.082 26.6943C292.995 27.0179 292.952 27.362 292.952 27.7266ZM310.91 28.0615C310.892 28.4808 310.828 28.9023 310.719 29.3262C310.609 29.7454 310.445 30.1305 310.227 30.4814C310.008 30.8324 309.723 31.1149 309.372 31.3291C309.026 31.5387 308.606 31.6436 308.114 31.6436C307.8 31.6436 307.524 31.5889 307.287 31.4795C307.055 31.3656 306.863 31.2038 306.713 30.9941C306.567 30.7845 306.465 30.5316 306.405 30.2354C306.351 29.9391 306.341 29.6087 306.378 29.2441L306.727 25.457H307.731L307.383 29.2441C307.355 29.5768 307.362 29.848 307.403 30.0576C307.449 30.2673 307.517 30.429 307.608 30.543C307.7 30.6523 307.802 30.7275 307.916 30.7686C308.035 30.8096 308.148 30.8301 308.258 30.8301C308.531 30.8301 308.775 30.7594 308.989 30.6182C309.203 30.4723 309.383 30.2741 309.529 30.0234C309.68 29.7682 309.796 29.4743 309.878 29.1416C309.96 28.8044 310.01 28.4443 310.028 28.0615C310.06 27.3825 310.028 26.7581 309.933 26.1885C309.841 25.6188 309.684 25.113 309.461 24.6709C309.242 24.2288 308.955 23.8551 308.6 23.5498C308.244 23.2445 307.82 23.012 307.328 22.8525C306.836 22.693 306.273 22.6133 305.64 22.6133C305.065 22.6133 304.535 22.7021 304.047 22.8799C303.564 23.0531 303.129 23.3037 302.741 23.6318C302.358 23.96 302.028 24.3542 301.75 24.8145C301.477 25.2747 301.26 25.7943 301.101 26.373C300.946 26.9473 300.854 27.5671 300.827 28.2324C300.795 28.916 300.832 29.5449 300.937 30.1191C301.041 30.6888 301.21 31.1969 301.442 31.6436C301.679 32.0947 301.978 32.4753 302.338 32.7852C302.698 33.0996 303.115 33.3366 303.589 33.4961C304.063 33.6602 304.591 33.7422 305.175 33.7422C305.576 33.7422 305.981 33.6943 306.392 33.5986C306.806 33.5029 307.153 33.373 307.431 33.209L307.69 33.9883C307.371 34.1934 306.973 34.346 306.494 34.4463C306.02 34.5465 305.571 34.5967 305.147 34.5967C304.455 34.5967 303.821 34.501 303.247 34.3096C302.677 34.1227 302.172 33.847 301.729 33.4824C301.292 33.1224 300.927 32.6826 300.636 32.1631C300.344 31.6481 300.13 31.0602 299.993 30.3994C299.856 29.7386 299.804 29.0163 299.836 28.2324C299.868 27.485 299.979 26.7809 300.171 26.1201C300.367 25.4593 300.633 24.86 300.971 24.3223C301.308 23.7845 301.709 23.3219 302.174 22.9346C302.643 22.5426 303.17 22.2419 303.753 22.0322C304.341 21.8226 304.979 21.7178 305.667 21.7178C306.369 21.7178 307.005 21.8135 307.574 22.0049C308.144 22.1963 308.643 22.472 309.071 22.832C309.504 23.1921 309.862 23.6318 310.145 24.1514C310.427 24.6709 310.632 25.2588 310.76 25.915C310.892 26.5713 310.942 27.2868 310.91 28.0615ZM303.89 28.6426C303.858 28.9616 303.858 29.2464 303.89 29.4971C303.922 29.7477 303.983 29.9596 304.074 30.1328C304.165 30.306 304.284 30.4382 304.43 30.5293C304.58 30.6159 304.756 30.6592 304.956 30.6592C305.088 30.6592 305.227 30.6273 305.373 30.5635C305.519 30.4951 305.662 30.3903 305.804 30.249C305.945 30.1077 306.077 29.9232 306.2 29.6953C306.323 29.4674 306.426 29.194 306.508 28.875L306.959 29.3672C306.854 29.7409 306.717 30.069 306.549 30.3516C306.385 30.6341 306.2 30.8711 305.995 31.0625C305.79 31.2539 305.571 31.3997 305.339 31.5C305.111 31.5957 304.879 31.6436 304.642 31.6436C304.309 31.6436 304.017 31.5729 303.767 31.4316C303.516 31.2858 303.313 31.0807 303.158 30.8164C303.003 30.5521 302.894 30.2376 302.83 29.873C302.771 29.5039 302.762 29.0938 302.803 28.6426C302.844 28.1641 302.928 27.722 303.056 27.3164C303.183 26.9108 303.34 26.5485 303.527 26.2295C303.719 25.9105 303.933 25.6393 304.17 25.416C304.411 25.1927 304.667 25.0241 304.936 24.9102C305.204 24.7917 305.48 24.7324 305.763 24.7324C306.255 24.7324 306.642 24.8053 306.925 24.9512C307.207 25.0924 307.476 25.2611 307.731 25.457L307.15 26.1338C307.018 26.0062 306.845 25.8877 306.631 25.7783C306.417 25.6689 306.164 25.6143 305.872 25.6143C305.621 25.6143 305.387 25.6781 305.168 25.8057C304.949 25.9333 304.751 26.1247 304.573 26.3799C304.4 26.6351 304.254 26.9518 304.136 27.3301C304.017 27.7038 303.935 28.1413 303.89 28.6426ZM317.247 30.0645V21H318.519V31.5H317.356L317.247 30.0645ZM312.271 27.8838V27.7402C312.271 27.1751 312.339 26.6624 312.476 26.2021C312.617 25.7373 312.815 25.3385 313.07 25.0059C313.33 24.6732 313.638 24.418 313.993 24.2402C314.353 24.0579 314.754 23.9668 315.196 23.9668C315.661 23.9668 316.067 24.0488 316.413 24.2129C316.764 24.3724 317.06 24.6071 317.302 24.917C317.548 25.2223 317.742 25.5915 317.883 26.0244C318.024 26.4574 318.122 26.9473 318.177 27.4941V28.123C318.127 28.6654 318.029 29.153 317.883 29.5859C317.742 30.0189 317.548 30.388 317.302 30.6934C317.06 30.9987 316.764 31.2334 316.413 31.3975C316.062 31.557 315.652 31.6367 315.183 31.6367C314.75 31.6367 314.353 31.5433 313.993 31.3564C313.638 31.1696 313.33 30.9076 313.07 30.5703C312.815 30.2331 312.617 29.8366 312.476 29.3809C312.339 28.9206 312.271 28.4215 312.271 27.8838ZM313.542 27.7402V27.8838C313.542 28.2529 313.578 28.5993 313.651 28.9229C313.729 29.2464 313.847 29.5312 314.007 29.7773C314.166 30.0234 314.369 30.2171 314.615 30.3584C314.861 30.4951 315.155 30.5635 315.497 30.5635C315.916 30.5635 316.26 30.4746 316.529 30.2969C316.803 30.1191 317.021 29.8844 317.186 29.5928C317.35 29.3011 317.477 28.9844 317.568 28.6426V26.9951C317.514 26.7445 317.434 26.5029 317.329 26.2705C317.229 26.0335 317.097 25.8239 316.933 25.6416C316.773 25.4548 316.575 25.3066 316.338 25.1973C316.105 25.0879 315.83 25.0332 315.511 25.0332C315.164 25.0332 314.866 25.1061 314.615 25.252C314.369 25.3932 314.166 25.5892 314.007 25.8398C313.847 26.0859 313.729 26.373 313.651 26.7012C313.578 27.0247 313.542 27.3711 313.542 27.7402ZM325.149 30.0645V21H326.421V31.5H325.259L325.149 30.0645ZM320.173 27.8838V27.7402C320.173 27.1751 320.241 26.6624 320.378 26.2021C320.519 25.7373 320.717 25.3385 320.973 25.0059C321.232 24.6732 321.54 24.418 321.896 24.2402C322.256 24.0579 322.657 23.9668 323.099 23.9668C323.563 23.9668 323.969 24.0488 324.315 24.2129C324.666 24.3724 324.963 24.6071 325.204 24.917C325.45 25.2223 325.644 25.5915 325.785 26.0244C325.926 26.4574 326.024 26.9473 326.079 27.4941V28.123C326.029 28.6654 325.931 29.153 325.785 29.5859C325.644 30.0189 325.45 30.388 325.204 30.6934C324.963 30.9987 324.666 31.2334 324.315 31.3975C323.965 31.557 323.554 31.6367 323.085 31.6367C322.652 31.6367 322.256 31.5433 321.896 31.3564C321.54 31.1696 321.232 30.9076 320.973 30.5703C320.717 30.2331 320.519 29.8366 320.378 29.3809C320.241 28.9206 320.173 28.4215 320.173 27.8838ZM321.444 27.7402V27.8838C321.444 28.2529 321.481 28.5993 321.554 28.9229C321.631 29.2464 321.75 29.5312 321.909 29.7773C322.069 30.0234 322.271 30.2171 322.518 30.3584C322.764 30.4951 323.058 30.5635 323.399 30.5635C323.819 30.5635 324.163 30.4746 324.432 30.2969C324.705 30.1191 324.924 29.8844 325.088 29.5928C325.252 29.3011 325.38 28.9844 325.471 28.6426V26.9951C325.416 26.7445 325.336 26.5029 325.231 26.2705C325.131 26.0335 324.999 25.8239 324.835 25.6416C324.675 25.4548 324.477 25.3066 324.24 25.1973C324.008 25.0879 323.732 25.0332 323.413 25.0332C323.067 25.0332 322.768 25.1061 322.518 25.252C322.271 25.3932 322.069 25.5892 321.909 25.8398C321.75 26.0859 321.631 26.373 321.554 26.7012C321.481 27.0247 321.444 27.3711 321.444 27.7402ZM332.696 29.5381C332.696 29.3558 332.655 29.1872 332.573 29.0322C332.496 28.8727 332.334 28.7292 332.088 28.6016C331.846 28.4694 331.482 28.3555 330.994 28.2598C330.584 28.1732 330.213 28.0706 329.88 27.9521C329.552 27.8337 329.271 27.6901 329.039 27.5215C328.811 27.3529 328.636 27.1546 328.513 26.9268C328.39 26.6989 328.328 26.4323 328.328 26.127C328.328 25.8353 328.392 25.5596 328.52 25.2998C328.652 25.04 328.836 24.8099 329.073 24.6094C329.315 24.4089 329.604 24.2516 329.941 24.1377C330.279 24.0238 330.655 23.9668 331.069 23.9668C331.662 23.9668 332.168 24.0716 332.587 24.2812C333.006 24.4909 333.327 24.7712 333.551 25.1221C333.774 25.4684 333.886 25.8535 333.886 26.2773H332.621C332.621 26.0723 332.56 25.874 332.437 25.6826C332.318 25.4867 332.143 25.3249 331.91 25.1973C331.682 25.0697 331.402 25.0059 331.069 25.0059C330.718 25.0059 330.434 25.0605 330.215 25.1699C330.001 25.2747 329.843 25.4092 329.743 25.5732C329.647 25.7373 329.6 25.9105 329.6 26.0928C329.6 26.2295 329.622 26.3525 329.668 26.4619C329.718 26.5667 329.805 26.6647 329.928 26.7559C330.051 26.8424 330.224 26.9245 330.447 27.002C330.671 27.0794 330.955 27.1569 331.302 27.2344C331.908 27.3711 332.407 27.5352 332.799 27.7266C333.191 27.918 333.482 28.1527 333.674 28.4307C333.865 28.7087 333.961 29.0459 333.961 29.4424C333.961 29.766 333.893 30.0622 333.756 30.3311C333.624 30.5999 333.43 30.8324 333.175 31.0283C332.924 31.2197 332.623 31.3701 332.272 31.4795C331.926 31.5843 331.536 31.6367 331.104 31.6367C330.452 31.6367 329.9 31.5205 329.449 31.2881C328.998 31.0557 328.656 30.7549 328.424 30.3857C328.191 30.0166 328.075 29.627 328.075 29.2168H329.347C329.365 29.5632 329.465 29.8389 329.647 30.0439C329.83 30.2445 330.053 30.388 330.317 30.4746C330.582 30.5566 330.844 30.5977 331.104 30.5977C331.45 30.5977 331.739 30.5521 331.972 30.4609C332.209 30.3698 332.389 30.2445 332.512 30.085C332.635 29.9255 332.696 29.7432 332.696 29.5381ZM340.414 24.1035H341.562V31.3428C341.562 31.9945 341.43 32.5505 341.166 33.0107C340.902 33.471 340.533 33.8197 340.059 34.0566C339.589 34.2982 339.047 34.4189 338.432 34.4189C338.176 34.4189 337.876 34.3779 337.529 34.2959C337.188 34.2184 336.85 34.084 336.518 33.8926C336.189 33.7057 335.914 33.4528 335.69 33.1338L336.354 32.3818C336.663 32.7555 336.987 33.0153 337.324 33.1611C337.666 33.307 338.003 33.3799 338.336 33.3799C338.737 33.3799 339.083 33.3047 339.375 33.1543C339.667 33.0039 339.892 32.7806 340.052 32.4844C340.216 32.1927 340.298 31.8327 340.298 31.4043V25.7305L340.414 24.1035ZM335.321 27.8838V27.7402C335.321 27.1751 335.387 26.6624 335.52 26.2021C335.656 25.7373 335.85 25.3385 336.101 25.0059C336.356 24.6732 336.663 24.418 337.023 24.2402C337.383 24.0579 337.789 23.9668 338.24 23.9668C338.705 23.9668 339.111 24.0488 339.457 24.2129C339.808 24.3724 340.104 24.6071 340.346 24.917C340.592 25.2223 340.785 25.5915 340.927 26.0244C341.068 26.4574 341.166 26.9473 341.221 27.4941V28.123C341.171 28.6654 341.073 29.153 340.927 29.5859C340.785 30.0189 340.592 30.388 340.346 30.6934C340.104 30.9987 339.808 31.2334 339.457 31.3975C339.106 31.557 338.696 31.6367 338.227 31.6367C337.785 31.6367 337.383 31.5433 337.023 31.3564C336.668 31.1696 336.363 30.9076 336.107 30.5703C335.852 30.2331 335.656 29.8366 335.52 29.3809C335.387 28.9206 335.321 28.4215 335.321 27.8838ZM336.586 27.7402V27.8838C336.586 28.2529 336.622 28.5993 336.695 28.9229C336.773 29.2464 336.889 29.5312 337.044 29.7773C337.203 30.0234 337.406 30.2171 337.652 30.3584C337.898 30.4951 338.192 30.5635 338.534 30.5635C338.953 30.5635 339.3 30.4746 339.573 30.2969C339.847 30.1191 340.063 29.8844 340.223 29.5928C340.387 29.3011 340.514 28.9844 340.605 28.6426V26.9951C340.555 26.7445 340.478 26.5029 340.373 26.2705C340.273 26.0335 340.141 25.8239 339.977 25.6416C339.817 25.4548 339.619 25.3066 339.382 25.1973C339.145 25.0879 338.867 25.0332 338.548 25.0332C338.201 25.0332 337.903 25.1061 337.652 25.252C337.406 25.3932 337.203 25.5892 337.044 25.8398C336.889 26.0859 336.773 26.373 336.695 26.7012C336.622 27.0247 336.586 27.3711 336.586 27.7402ZM344.748 25.6826V31.5H343.483V24.1035H344.68L344.748 25.6826ZM344.447 27.5215L343.921 27.501C343.925 26.9951 344.001 26.528 344.146 26.0996C344.292 25.6667 344.497 25.2907 344.762 24.9717C345.026 24.6527 345.34 24.4066 345.705 24.2334C346.074 24.0557 346.482 23.9668 346.929 23.9668C347.293 23.9668 347.621 24.0169 347.913 24.1172C348.205 24.2129 348.453 24.3678 348.658 24.582C348.868 24.7962 349.027 25.0742 349.137 25.416C349.246 25.7533 349.301 26.1657 349.301 26.6533V31.5H348.029V26.6396C348.029 26.2523 347.972 25.9424 347.858 25.71C347.744 25.473 347.578 25.3021 347.359 25.1973C347.141 25.0879 346.872 25.0332 346.553 25.0332C346.238 25.0332 345.951 25.0993 345.691 25.2314C345.436 25.3636 345.215 25.5459 345.028 25.7783C344.846 26.0107 344.702 26.2773 344.598 26.5781C344.497 26.8743 344.447 27.1888 344.447 27.5215ZM352.486 25.2656V31.5H351.222V24.1035H352.452L352.486 25.2656ZM354.797 24.0625L354.79 25.2383C354.685 25.2155 354.585 25.2018 354.489 25.1973C354.398 25.1882 354.293 25.1836 354.175 25.1836C353.883 25.1836 353.626 25.2292 353.402 25.3203C353.179 25.4115 352.99 25.5391 352.835 25.7031C352.68 25.8672 352.557 26.0632 352.466 26.291C352.379 26.5143 352.322 26.7604 352.295 27.0293L351.939 27.2344C351.939 26.7878 351.983 26.3685 352.069 25.9766C352.16 25.5846 352.299 25.2383 352.486 24.9375C352.673 24.6322 352.91 24.3952 353.197 24.2266C353.489 24.0534 353.835 23.9668 354.236 23.9668C354.327 23.9668 354.432 23.9782 354.551 24.001C354.669 24.0192 354.751 24.0397 354.797 24.0625ZM355.139 30.8301C355.139 30.6159 355.205 30.4359 355.337 30.29C355.474 30.1396 355.67 30.0645 355.925 30.0645C356.18 30.0645 356.374 30.1396 356.506 30.29C356.643 30.4359 356.711 30.6159 356.711 30.8301C356.711 31.0397 356.643 31.2174 356.506 31.3633C356.374 31.5091 356.18 31.582 355.925 31.582C355.67 31.582 355.474 31.5091 355.337 31.3633C355.205 31.2174 355.139 31.0397 355.139 30.8301ZM361.77 30.5977C362.07 30.5977 362.348 30.5361 362.604 30.4131C362.859 30.29 363.068 30.1214 363.232 29.9072C363.396 29.6885 363.49 29.4401 363.513 29.1621H364.716C364.693 29.5996 364.545 30.0075 364.271 30.3857C364.003 30.7594 363.649 31.0625 363.212 31.2949C362.774 31.5228 362.294 31.6367 361.77 31.6367C361.214 31.6367 360.728 31.5387 360.313 31.3428C359.903 31.1468 359.562 30.8779 359.288 30.5361C359.019 30.1943 358.816 29.8024 358.68 29.3604C358.548 28.9137 358.481 28.4421 358.481 27.9453V27.6582C358.481 27.1615 358.548 26.6921 358.68 26.25C358.816 25.8034 359.019 25.4092 359.288 25.0674C359.562 24.7256 359.903 24.4567 360.313 24.2607C360.728 24.0648 361.214 23.9668 361.77 23.9668C362.348 23.9668 362.854 24.0853 363.287 24.3223C363.72 24.5547 364.06 24.8737 364.306 25.2793C364.556 25.6803 364.693 26.1361 364.716 26.6465H363.513C363.49 26.3411 363.403 26.0654 363.253 25.8193C363.107 25.5732 362.907 25.3773 362.651 25.2314C362.401 25.0811 362.107 25.0059 361.77 25.0059C361.382 25.0059 361.056 25.0833 360.792 25.2383C360.532 25.3887 360.325 25.5938 360.17 25.8535C360.02 26.1087 359.91 26.3936 359.842 26.708C359.778 27.0179 359.746 27.3346 359.746 27.6582V27.9453C359.746 28.2689 359.778 28.5879 359.842 28.9023C359.906 29.2168 360.013 29.5016 360.163 29.7568C360.318 30.012 360.525 30.2171 360.785 30.3721C361.049 30.5225 361.378 30.5977 361.77 30.5977ZM365.803 27.8838V27.7266C365.803 27.1934 365.88 26.6989 366.035 26.2432C366.19 25.7829 366.413 25.3841 366.705 25.0469C366.997 24.7051 367.35 24.4408 367.765 24.2539C368.179 24.0625 368.644 23.9668 369.159 23.9668C369.679 23.9668 370.146 24.0625 370.561 24.2539C370.98 24.4408 371.335 24.7051 371.627 25.0469C371.923 25.3841 372.149 25.7829 372.304 26.2432C372.459 26.6989 372.536 27.1934 372.536 27.7266V27.8838C372.536 28.417 372.459 28.9115 372.304 29.3672C372.149 29.8229 371.923 30.2217 371.627 30.5635C371.335 30.9007 370.982 31.165 370.567 31.3564C370.157 31.5433 369.692 31.6367 369.173 31.6367C368.653 31.6367 368.186 31.5433 367.771 31.3564C367.357 31.165 367.001 30.9007 366.705 30.5635C366.413 30.2217 366.19 29.8229 366.035 29.3672C365.88 28.9115 365.803 28.417 365.803 27.8838ZM367.067 27.7266V27.8838C367.067 28.2529 367.111 28.6016 367.197 28.9297C367.284 29.2533 367.414 29.5404 367.587 29.791C367.765 30.0417 367.986 30.2399 368.25 30.3857C368.514 30.527 368.822 30.5977 369.173 30.5977C369.519 30.5977 369.822 30.527 370.082 30.3857C370.346 30.2399 370.565 30.0417 370.738 29.791C370.911 29.5404 371.041 29.2533 371.128 28.9297C371.219 28.6016 371.265 28.2529 371.265 27.8838V27.7266C371.265 27.362 371.219 27.0179 371.128 26.6943C371.041 26.3662 370.909 26.0768 370.731 25.8262C370.558 25.571 370.34 25.3704 370.075 25.2246C369.815 25.0788 369.51 25.0059 369.159 25.0059C368.813 25.0059 368.507 25.0788 368.243 25.2246C367.983 25.3704 367.765 25.571 367.587 25.8262C367.414 26.0768 367.284 26.3662 367.197 26.6943C367.111 27.0179 367.067 27.362 367.067 27.7266ZM375.38 25.5732V31.5H374.108V24.1035H375.312L375.38 25.5732ZM375.12 27.5215L374.532 27.501C374.537 26.9951 374.603 26.528 374.73 26.0996C374.858 25.6667 375.047 25.2907 375.298 24.9717C375.549 24.6527 375.861 24.4066 376.234 24.2334C376.608 24.0557 377.041 23.9668 377.533 23.9668C377.88 23.9668 378.199 24.0169 378.49 24.1172C378.782 24.2129 379.035 24.3656 379.249 24.5752C379.463 24.7848 379.63 25.0537 379.748 25.3818C379.867 25.71 379.926 26.1064 379.926 26.5713V31.5H378.661V26.6328C378.661 26.2454 378.595 25.9355 378.463 25.7031C378.335 25.4707 378.153 25.3021 377.916 25.1973C377.679 25.0879 377.401 25.0332 377.082 25.0332C376.708 25.0332 376.396 25.0993 376.146 25.2314C375.895 25.3636 375.694 25.5459 375.544 25.7783C375.394 26.0107 375.284 26.2773 375.216 26.5781C375.152 26.8743 375.12 27.1888 375.12 27.5215ZM379.912 26.8242L379.064 27.084C379.069 26.6784 379.135 26.2887 379.263 25.915C379.395 25.5413 379.584 25.2087 379.83 24.917C380.081 24.6253 380.388 24.3952 380.753 24.2266C381.118 24.0534 381.535 23.9668 382.004 23.9668C382.4 23.9668 382.751 24.0192 383.057 24.124C383.367 24.2288 383.626 24.3906 383.836 24.6094C384.05 24.8236 384.212 25.0993 384.321 25.4365C384.431 25.7738 384.485 26.1748 384.485 26.6396V31.5H383.214V26.626C383.214 26.2113 383.148 25.89 383.016 25.6621C382.888 25.4297 382.706 25.2679 382.469 25.1768C382.236 25.0811 381.958 25.0332 381.635 25.0332C381.357 25.0332 381.111 25.0811 380.896 25.1768C380.682 25.2725 380.502 25.4046 380.356 25.5732C380.211 25.7373 380.099 25.9264 380.021 26.1406C379.949 26.3548 379.912 26.5827 379.912 26.8242Z" fill="black"/>
<path d="M1038.5 21H1035.5C1034.95 21 1034.5 21.4477 1034.5 22V25H1038.5C1038.61 24.9975 1038.72 25.0504 1038.79 25.1419C1038.86 25.2334 1038.88 25.352 1038.84 25.46L1038.1 27.66C1038.03 27.8619 1037.84 27.9984 1037.63 28H1034.5V35.5C1034.5 35.7761 1034.28 36 1034 36H1031.5C1031.22 36 1031 35.7761 1031 35.5V28H1029.5C1029.22 28 1029 27.7761 1029 27.5V25.5C1029 25.2239 1029.22 25 1029.5 25H1031V22C1031 19.7909 1032.79 18 1035 18H1038.5C1038.78 18 1039 18.2239 1039 18.5V20.5C1039 20.7761 1038.78 21 1038.5 21Z" fill="black"/>
<path fill-rule="evenodd" clip-rule="evenodd" d="M1074 18H1066C1063.24 18 1061 20.2386 1061 23V31C1061 33.7614 1063.24 36 1066 36H1074C1076.76 36 1079 33.7614 1079 31V23C1079 20.2386 1076.76 18 1074 18ZM1077.25 31C1077.24 32.7926 1075.79 34.2445 1074 34.25H1066C1064.21 34.2445 1062.76 32.7926 1062.75 31V23C1062.76 21.2074 1064.21 19.7555 1066 19.75H1074C1075.79 19.7555 1077.24 21.2074 1077.25 23V31ZM1074.75 23.25C1075.3 23.25 1075.75 22.8023 1075.75 22.25C1075.75 21.6977 1075.3 21.25 1074.75 21.25C1074.2 21.25 1073.75 21.6977 1073.75 22.25C1073.75 22.8023 1074.2 23.25 1074.75 23.25ZM1070 22.5C1067.51 22.5 1065.5 24.5147 1065.5 27C1065.5 29.4853 1067.51 31.5 1070 31.5C1072.49 31.5 1074.5 29.4853 1074.5 27C1074.5 25.8057 1074.03 24.6596 1073.18 23.8151C1072.34 22.9706 1071.19 22.4973 1070 22.5ZM1067.25 27C1067.25 28.5188 1068.48 29.75 1070 29.75C1071.52 29.75 1072.75 28.5188 1072.75 27C1072.75 25.4812 1071.52 24.25 1070 24.25C1068.48 24.25 1067.25 25.4812 1067.25 27Z" fill="black"/>
<path d="M1114.97 21.7174C1114.51 22.3369 1113.95 22.8773 1113.31 23.3178C1113.31 23.4796 1113.31 23.6414 1113.31 23.8123C1113.32 26.7511 1112.14 29.5691 1110.05 31.6345C1107.96 33.6999 1105.13 34.8399 1102.19 34.7989C1100.5 34.8046 1098.82 34.4169 1097.3 33.6661C1097.21 33.6302 1097.16 33.549 1097.16 33.4593V33.3604C1097.16 33.2313 1097.27 33.1267 1097.4 33.1267C1099.06 33.0716 1100.67 32.4929 1102 31.4724C1100.49 31.4419 1099.13 30.5469 1098.5 29.1707C1098.47 29.0956 1098.48 29.0093 1098.53 28.9432C1098.57 28.8771 1098.65 28.8407 1098.73 28.8471C1099.19 28.8932 1099.66 28.8505 1100.1 28.7212C1098.43 28.375 1097.18 26.9904 1097 25.2957C1096.99 25.2144 1097.03 25.1357 1097.1 25.0879C1097.16 25.0402 1097.25 25.0303 1097.32 25.062C1097.77 25.2595 1098.25 25.3635 1098.74 25.3676C1097.28 24.4085 1096.65 22.5841 1097.21 20.9262C1097.26 20.7651 1097.4 20.6461 1097.57 20.6129C1097.74 20.5798 1097.91 20.6373 1098.02 20.7644C1100 22.8633 1102.71 24.114 1105.58 24.2528C1105.51 23.9589 1105.47 23.6568 1105.47 23.3537C1105.5 21.7647 1106.48 20.3492 1107.96 19.7699C1109.44 19.1905 1111.12 19.562 1112.22 20.7104C1112.97 20.5679 1113.7 20.3165 1114.37 19.9642C1114.42 19.9333 1114.48 19.9333 1114.53 19.9642C1114.56 20.0137 1114.56 20.0765 1114.53 20.126C1114.21 20.8755 1113.65 21.5041 1112.95 21.9242C1113.57 21.853 1114.17 21.7081 1114.75 21.4926C1114.8 21.4594 1114.86 21.4594 1114.91 21.4926C1114.95 21.5113 1114.98 21.5471 1114.99 21.5904C1115.01 21.6337 1115 21.6802 1114.97 21.7174Z" fill="black"/>
<path fill-rule="evenodd" clip-rule="evenodd" d="M1135 18H1149C1150.1 18 1151 18.8954 1151 20V34C1151 35.1046 1150.1 36 1149 36H1135C1133.9 36 1133 35.1046 1133 34V20C1133 18.8954 1133.9 18 1135 18ZM1138 33C1138.28 33 1138.5 32.7761 1138.5 32.5V25.5C1138.5 25.2239 1138.28 25 1138 25H1136.5C1136.22 25 1136 25.2239 1136 25.5V32.5C1136 32.7761 1136.22 33 1136.5 33H1138ZM1137.25 24C1136.42 24 1135.75 23.3284 1135.75 22.5C1135.75 21.6716 1136.42 21 1137.25 21C1138.08 21 1138.75 21.6716 1138.75 22.5C1138.75 23.3284 1138.08 24 1137.25 24ZM1147.5 33C1147.78 33 1148 32.7761 1148 32.5V27.9C1148.03 26.3108 1146.86 24.9545 1145.28 24.76C1144.18 24.6593 1143.11 25.1744 1142.5 26.1V25.5C1142.5 25.2239 1142.28 25 1142 25H1140.5C1140.22 25 1140 25.2239 1140 25.5V32.5C1140 32.7761 1140.22 33 1140.5 33H1142C1142.28 33 1142.5 32.7761 1142.5 32.5V28.75C1142.5 27.9216 1143.17 27.25 1144 27.25C1144.83 27.25 1145.5 27.9216 1145.5 28.75V32.5C1145.5 32.7761 1145.72 33 1146 33H1147.5Z" fill="black"/>
</svg>
